G04 #@! TF.GenerationSoftware,KiCad,Pcbnew,(5.0.0-3-g5ebb6b6)*
G04 #@! TF.CreationDate,2018-10-04T16:31:17-06:00*
G04 #@! TF.ProjectId,Hallow,48616C6C6F772E6B696361645F706362,rev?*
G04 #@! TF.SameCoordinates,Original*
G04 #@! TF.FileFunction,Legend,Top*
G04 #@! TF.FilePolarity,Positive*
%FSLAX46Y46*%
G04 Gerber Fmt 4.6, Leading zero omitted, Abs format (unit mm)*
G04 Created by KiCad (PCBNEW (5.0.0-3-g5ebb6b6)) date Thursday, October 04, 2018 at 04:31:17 PM*
%MOMM*%
%LPD*%
G01*
G04 APERTURE LIST*
%ADD10C,0.250000*%
%ADD11C,0.125000*%
%ADD12C,0.120000*%
%ADD13C,0.100000*%
%ADD14C,0.010000*%
%ADD15C,0.150000*%
%ADD16C,0.200000*%
G04 APERTURE END LIST*
D10*
X258693085Y-96039314D02*
X258693085Y-96705980D01*
X258454990Y-95658361D02*
X258216895Y-96372647D01*
X258835942Y-96372647D01*
X259407371Y-95705980D02*
X259502609Y-95705980D01*
X259597847Y-95753600D01*
X259645466Y-95801219D01*
X259693085Y-95896457D01*
X259740704Y-96086933D01*
X259740704Y-96325028D01*
X259693085Y-96515504D01*
X259645466Y-96610742D01*
X259597847Y-96658361D01*
X259502609Y-96705980D01*
X259407371Y-96705980D01*
X259312133Y-96658361D01*
X259264514Y-96610742D01*
X259216895Y-96515504D01*
X259169276Y-96325028D01*
X259169276Y-96086933D01*
X259216895Y-95896457D01*
X259264514Y-95801219D01*
X259312133Y-95753600D01*
X259407371Y-95705980D01*
X260326685Y-148064780D02*
X260326685Y-147064780D01*
X260898114Y-148064780D01*
X260898114Y-147064780D01*
X261945733Y-147969542D02*
X261898114Y-148017161D01*
X261755257Y-148064780D01*
X261660019Y-148064780D01*
X261517161Y-148017161D01*
X261421923Y-147921923D01*
X261374304Y-147826685D01*
X261326685Y-147636209D01*
X261326685Y-147493352D01*
X261374304Y-147302876D01*
X261421923Y-147207638D01*
X261517161Y-147112400D01*
X261660019Y-147064780D01*
X261755257Y-147064780D01*
X261898114Y-147112400D01*
X261945733Y-147160019D01*
X255145085Y-148071142D02*
X255097466Y-148118761D01*
X254954609Y-148166380D01*
X254859371Y-148166380D01*
X254716514Y-148118761D01*
X254621276Y-148023523D01*
X254573657Y-147928285D01*
X254526038Y-147737809D01*
X254526038Y-147594952D01*
X254573657Y-147404476D01*
X254621276Y-147309238D01*
X254716514Y-147214000D01*
X254859371Y-147166380D01*
X254954609Y-147166380D01*
X255097466Y-147214000D01*
X255145085Y-147261619D01*
X255764133Y-147166380D02*
X255954609Y-147166380D01*
X256049847Y-147214000D01*
X256145085Y-147309238D01*
X256192704Y-147499714D01*
X256192704Y-147833047D01*
X256145085Y-148023523D01*
X256049847Y-148118761D01*
X255954609Y-148166380D01*
X255764133Y-148166380D01*
X255668895Y-148118761D01*
X255573657Y-148023523D01*
X255526038Y-147833047D01*
X255526038Y-147499714D01*
X255573657Y-147309238D01*
X255668895Y-147214000D01*
X255764133Y-147166380D01*
X256621276Y-148166380D02*
X256621276Y-147166380D01*
X256954609Y-147880666D01*
X257287942Y-147166380D01*
X257287942Y-148166380D01*
X250092076Y-148166380D02*
X250092076Y-147166380D01*
X250663504Y-148166380D01*
X250663504Y-147166380D01*
X251330171Y-147166380D02*
X251520647Y-147166380D01*
X251615885Y-147214000D01*
X251711123Y-147309238D01*
X251758742Y-147499714D01*
X251758742Y-147833047D01*
X251711123Y-148023523D01*
X251615885Y-148118761D01*
X251520647Y-148166380D01*
X251330171Y-148166380D01*
X251234933Y-148118761D01*
X251139695Y-148023523D01*
X251092076Y-147833047D01*
X251092076Y-147499714D01*
X251139695Y-147309238D01*
X251234933Y-147214000D01*
X251330171Y-147166380D01*
D11*
X239060388Y-110908333D02*
X238727054Y-110541666D01*
X238488959Y-110908333D02*
X238488959Y-110138333D01*
X238869911Y-110138333D01*
X238965150Y-110175000D01*
X239012769Y-110211666D01*
X239060388Y-110285000D01*
X239060388Y-110395000D01*
X239012769Y-110468333D01*
X238965150Y-110505000D01*
X238869911Y-110541666D01*
X238488959Y-110541666D01*
X239441340Y-110871666D02*
X239584197Y-110908333D01*
X239822292Y-110908333D01*
X239917530Y-110871666D01*
X239965150Y-110835000D01*
X240012769Y-110761666D01*
X240012769Y-110688333D01*
X239965150Y-110615000D01*
X239917530Y-110578333D01*
X239822292Y-110541666D01*
X239631816Y-110505000D01*
X239536578Y-110468333D01*
X239488959Y-110431666D01*
X239441340Y-110358333D01*
X239441340Y-110285000D01*
X239488959Y-110211666D01*
X239536578Y-110175000D01*
X239631816Y-110138333D01*
X239869911Y-110138333D01*
X240012769Y-110175000D01*
X240298483Y-110138333D02*
X240869911Y-110138333D01*
X240584197Y-110908333D02*
X240584197Y-110138333D01*
X239346102Y-113248333D02*
X239822292Y-113248333D01*
X239250864Y-113468333D02*
X239584197Y-112698333D01*
X239917530Y-113468333D01*
X240441340Y-112698333D02*
X240536578Y-112698333D01*
X240631816Y-112735000D01*
X240679435Y-112771666D01*
X240727054Y-112845000D01*
X240774673Y-112991666D01*
X240774673Y-113175000D01*
X240727054Y-113321666D01*
X240679435Y-113395000D01*
X240631816Y-113431666D01*
X240536578Y-113468333D01*
X240441340Y-113468333D01*
X240346102Y-113431666D01*
X240298483Y-113395000D01*
X240250864Y-113321666D01*
X240203245Y-113175000D01*
X240203245Y-112991666D01*
X240250864Y-112845000D01*
X240298483Y-112771666D01*
X240346102Y-112735000D01*
X240441340Y-112698333D01*
X239250864Y-116028333D02*
X239250864Y-115258333D01*
X239488959Y-115258333D01*
X239631816Y-115295000D01*
X239727054Y-115368333D01*
X239774673Y-115441666D01*
X239822292Y-115588333D01*
X239822292Y-115698333D01*
X239774673Y-115845000D01*
X239727054Y-115918333D01*
X239631816Y-115991666D01*
X239488959Y-116028333D01*
X239250864Y-116028333D01*
X240441340Y-115258333D02*
X240536578Y-115258333D01*
X240631816Y-115295000D01*
X240679435Y-115331666D01*
X240727054Y-115405000D01*
X240774673Y-115551666D01*
X240774673Y-115735000D01*
X240727054Y-115881666D01*
X240679435Y-115955000D01*
X240631816Y-115991666D01*
X240536578Y-116028333D01*
X240441340Y-116028333D01*
X240346102Y-115991666D01*
X240298483Y-115955000D01*
X240250864Y-115881666D01*
X240203245Y-115735000D01*
X240203245Y-115551666D01*
X240250864Y-115405000D01*
X240298483Y-115331666D01*
X240346102Y-115295000D01*
X240441340Y-115258333D01*
X239250864Y-118588333D02*
X239250864Y-117818333D01*
X239488959Y-117818333D01*
X239631816Y-117855000D01*
X239727054Y-117928333D01*
X239774673Y-118001666D01*
X239822292Y-118148333D01*
X239822292Y-118258333D01*
X239774673Y-118405000D01*
X239727054Y-118478333D01*
X239631816Y-118551666D01*
X239488959Y-118588333D01*
X239250864Y-118588333D01*
X240727054Y-117818333D02*
X240250864Y-117818333D01*
X240203245Y-118185000D01*
X240250864Y-118148333D01*
X240346102Y-118111666D01*
X240584197Y-118111666D01*
X240679435Y-118148333D01*
X240727054Y-118185000D01*
X240774673Y-118258333D01*
X240774673Y-118441666D01*
X240727054Y-118515000D01*
X240679435Y-118551666D01*
X240584197Y-118588333D01*
X240346102Y-118588333D01*
X240250864Y-118551666D01*
X240203245Y-118515000D01*
X239250864Y-121148333D02*
X239250864Y-120378333D01*
X239488959Y-120378333D01*
X239631816Y-120415000D01*
X239727054Y-120488333D01*
X239774673Y-120561666D01*
X239822292Y-120708333D01*
X239822292Y-120818333D01*
X239774673Y-120965000D01*
X239727054Y-121038333D01*
X239631816Y-121111666D01*
X239488959Y-121148333D01*
X239250864Y-121148333D01*
X240679435Y-120378333D02*
X240488959Y-120378333D01*
X240393721Y-120415000D01*
X240346102Y-120451666D01*
X240250864Y-120561666D01*
X240203245Y-120708333D01*
X240203245Y-121001666D01*
X240250864Y-121075000D01*
X240298483Y-121111666D01*
X240393721Y-121148333D01*
X240584197Y-121148333D01*
X240679435Y-121111666D01*
X240727054Y-121075000D01*
X240774673Y-121001666D01*
X240774673Y-120818333D01*
X240727054Y-120745000D01*
X240679435Y-120708333D01*
X240584197Y-120671666D01*
X240393721Y-120671666D01*
X240298483Y-120708333D01*
X240250864Y-120745000D01*
X240203245Y-120818333D01*
X239250864Y-123708333D02*
X239250864Y-122938333D01*
X239488959Y-122938333D01*
X239631816Y-122975000D01*
X239727054Y-123048333D01*
X239774673Y-123121666D01*
X239822292Y-123268333D01*
X239822292Y-123378333D01*
X239774673Y-123525000D01*
X239727054Y-123598333D01*
X239631816Y-123671666D01*
X239488959Y-123708333D01*
X239250864Y-123708333D01*
X240155626Y-122938333D02*
X240822292Y-122938333D01*
X240393721Y-123708333D01*
X239250864Y-126268333D02*
X239250864Y-125498333D01*
X239488959Y-125498333D01*
X239631816Y-125535000D01*
X239727054Y-125608333D01*
X239774673Y-125681666D01*
X239822292Y-125828333D01*
X239822292Y-125938333D01*
X239774673Y-126085000D01*
X239727054Y-126158333D01*
X239631816Y-126231666D01*
X239488959Y-126268333D01*
X239250864Y-126268333D01*
X240393721Y-125828333D02*
X240298483Y-125791666D01*
X240250864Y-125755000D01*
X240203245Y-125681666D01*
X240203245Y-125645000D01*
X240250864Y-125571666D01*
X240298483Y-125535000D01*
X240393721Y-125498333D01*
X240584197Y-125498333D01*
X240679435Y-125535000D01*
X240727054Y-125571666D01*
X240774673Y-125645000D01*
X240774673Y-125681666D01*
X240727054Y-125755000D01*
X240679435Y-125791666D01*
X240584197Y-125828333D01*
X240393721Y-125828333D01*
X240298483Y-125865000D01*
X240250864Y-125901666D01*
X240203245Y-125975000D01*
X240203245Y-126121666D01*
X240250864Y-126195000D01*
X240298483Y-126231666D01*
X240393721Y-126268333D01*
X240584197Y-126268333D01*
X240679435Y-126231666D01*
X240727054Y-126195000D01*
X240774673Y-126121666D01*
X240774673Y-125975000D01*
X240727054Y-125901666D01*
X240679435Y-125865000D01*
X240584197Y-125828333D01*
X238346102Y-128058333D02*
X238965150Y-128058333D01*
X238631816Y-128351666D01*
X238774673Y-128351666D01*
X238869911Y-128388333D01*
X238917530Y-128425000D01*
X238965150Y-128498333D01*
X238965150Y-128681666D01*
X238917530Y-128755000D01*
X238869911Y-128791666D01*
X238774673Y-128828333D01*
X238488959Y-128828333D01*
X238393721Y-128791666D01*
X238346102Y-128755000D01*
X239250864Y-128058333D02*
X239584197Y-128828333D01*
X239917530Y-128058333D01*
X240155626Y-128058333D02*
X240774673Y-128058333D01*
X240441340Y-128351666D01*
X240584197Y-128351666D01*
X240679435Y-128388333D01*
X240727054Y-128425000D01*
X240774673Y-128498333D01*
X240774673Y-128681666D01*
X240727054Y-128755000D01*
X240679435Y-128791666D01*
X240584197Y-128828333D01*
X240298483Y-128828333D01*
X240203245Y-128791666D01*
X240155626Y-128755000D01*
X222325288Y-110341533D02*
X222896716Y-110341533D01*
X222611002Y-111111533D02*
X222611002Y-110341533D01*
X223134811Y-110341533D02*
X223801478Y-111111533D01*
X223801478Y-110341533D02*
X223134811Y-111111533D01*
X223039573Y-113671533D02*
X222706240Y-113304866D01*
X222468145Y-113671533D02*
X222468145Y-112901533D01*
X222849097Y-112901533D01*
X222944335Y-112938200D01*
X222991954Y-112974866D01*
X223039573Y-113048200D01*
X223039573Y-113158200D01*
X222991954Y-113231533D01*
X222944335Y-113268200D01*
X222849097Y-113304866D01*
X222468145Y-113304866D01*
X223372907Y-112901533D02*
X224039573Y-113671533D01*
X224039573Y-112901533D02*
X223372907Y-113671533D01*
X222468145Y-116231533D02*
X222468145Y-115461533D01*
X222706240Y-115461533D01*
X222849097Y-115498200D01*
X222944335Y-115571533D01*
X222991954Y-115644866D01*
X223039573Y-115791533D01*
X223039573Y-115901533D01*
X222991954Y-116048200D01*
X222944335Y-116121533D01*
X222849097Y-116194866D01*
X222706240Y-116231533D01*
X222468145Y-116231533D01*
X223991954Y-116231533D02*
X223420526Y-116231533D01*
X223706240Y-116231533D02*
X223706240Y-115461533D01*
X223611002Y-115571533D01*
X223515764Y-115644866D01*
X223420526Y-115681533D01*
X222468145Y-118791533D02*
X222468145Y-118021533D01*
X222706240Y-118021533D01*
X222849097Y-118058200D01*
X222944335Y-118131533D01*
X222991954Y-118204866D01*
X223039573Y-118351533D01*
X223039573Y-118461533D01*
X222991954Y-118608200D01*
X222944335Y-118681533D01*
X222849097Y-118754866D01*
X222706240Y-118791533D01*
X222468145Y-118791533D01*
X223420526Y-118094866D02*
X223468145Y-118058200D01*
X223563383Y-118021533D01*
X223801478Y-118021533D01*
X223896716Y-118058200D01*
X223944335Y-118094866D01*
X223991954Y-118168200D01*
X223991954Y-118241533D01*
X223944335Y-118351533D01*
X223372907Y-118791533D01*
X223991954Y-118791533D01*
X222468145Y-121351533D02*
X222468145Y-120581533D01*
X222706240Y-120581533D01*
X222849097Y-120618200D01*
X222944335Y-120691533D01*
X222991954Y-120764866D01*
X223039573Y-120911533D01*
X223039573Y-121021533D01*
X222991954Y-121168200D01*
X222944335Y-121241533D01*
X222849097Y-121314866D01*
X222706240Y-121351533D01*
X222468145Y-121351533D01*
X223372907Y-120581533D02*
X223991954Y-120581533D01*
X223658621Y-120874866D01*
X223801478Y-120874866D01*
X223896716Y-120911533D01*
X223944335Y-120948200D01*
X223991954Y-121021533D01*
X223991954Y-121204866D01*
X223944335Y-121278200D01*
X223896716Y-121314866D01*
X223801478Y-121351533D01*
X223515764Y-121351533D01*
X223420526Y-121314866D01*
X223372907Y-121278200D01*
X222468145Y-123911533D02*
X222468145Y-123141533D01*
X222706240Y-123141533D01*
X222849097Y-123178200D01*
X222944335Y-123251533D01*
X222991954Y-123324866D01*
X223039573Y-123471533D01*
X223039573Y-123581533D01*
X222991954Y-123728200D01*
X222944335Y-123801533D01*
X222849097Y-123874866D01*
X222706240Y-123911533D01*
X222468145Y-123911533D01*
X223896716Y-123398200D02*
X223896716Y-123911533D01*
X223658621Y-123104866D02*
X223420526Y-123654866D01*
X224039573Y-123654866D01*
X222991954Y-125738200D02*
X222896716Y-125701533D01*
X222753859Y-125701533D01*
X222611002Y-125738200D01*
X222515764Y-125811533D01*
X222468145Y-125884866D01*
X222420526Y-126031533D01*
X222420526Y-126141533D01*
X222468145Y-126288200D01*
X222515764Y-126361533D01*
X222611002Y-126434866D01*
X222753859Y-126471533D01*
X222849097Y-126471533D01*
X222991954Y-126434866D01*
X223039573Y-126398200D01*
X223039573Y-126141533D01*
X222849097Y-126141533D01*
X223468145Y-126471533D02*
X223468145Y-125701533D01*
X224039573Y-126471533D01*
X224039573Y-125701533D01*
X224515764Y-126471533D02*
X224515764Y-125701533D01*
X224753859Y-125701533D01*
X224896716Y-125738200D01*
X224991954Y-125811533D01*
X225039573Y-125884866D01*
X225087192Y-126031533D01*
X225087192Y-126141533D01*
X225039573Y-126288200D01*
X224991954Y-126361533D01*
X224896716Y-126434866D01*
X224753859Y-126471533D01*
X224515764Y-126471533D01*
X222944335Y-128261533D02*
X222468145Y-128261533D01*
X222420526Y-128628200D01*
X222468145Y-128591533D01*
X222563383Y-128554866D01*
X222801478Y-128554866D01*
X222896716Y-128591533D01*
X222944335Y-128628200D01*
X222991954Y-128701533D01*
X222991954Y-128884866D01*
X222944335Y-128958200D01*
X222896716Y-128994866D01*
X222801478Y-129031533D01*
X222563383Y-129031533D01*
X222468145Y-128994866D01*
X222420526Y-128958200D01*
X223277669Y-128261533D02*
X223611002Y-129031533D01*
X223944335Y-128261533D01*
D12*
G04 #@! TO.C,J3*
X197510800Y-149552000D02*
X197510800Y-146892000D01*
X197510800Y-149552000D02*
X210270800Y-149552000D01*
X210270800Y-149552000D02*
X210270800Y-146892000D01*
X197510800Y-146892000D02*
X210270800Y-146892000D01*
X194910800Y-146892000D02*
X196240800Y-146892000D01*
X194910800Y-148222000D02*
X194910800Y-146892000D01*
G04 #@! TO.C,L293D*
X193031200Y-140668800D02*
G75*
G02X193031200Y-142668800I0J-1000000D01*
G01*
X193031200Y-142668800D02*
X193031200Y-144318800D01*
X193031200Y-144318800D02*
X213471200Y-144318800D01*
X213471200Y-144318800D02*
X213471200Y-139018800D01*
X213471200Y-139018800D02*
X193031200Y-139018800D01*
X193031200Y-139018800D02*
X193031200Y-140668800D01*
G04 #@! TO.C,D3*
X227983745Y-143219771D02*
X229313745Y-143219771D01*
X229313745Y-143219771D02*
X229313745Y-144549771D01*
X229313745Y-145819771D02*
X229313745Y-148419771D01*
X226653745Y-148419771D02*
X229313745Y-148419771D01*
X226653745Y-145819771D02*
X226653745Y-148419771D01*
X226653745Y-145819771D02*
X229313745Y-145819771D01*
G04 #@! TO.C,D2*
X229912000Y-145885200D02*
X232572000Y-145885200D01*
X229912000Y-145885200D02*
X229912000Y-148485200D01*
X229912000Y-148485200D02*
X232572000Y-148485200D01*
X232572000Y-145885200D02*
X232572000Y-148485200D01*
X232572000Y-143285200D02*
X232572000Y-144615200D01*
X231242000Y-143285200D02*
X232572000Y-143285200D01*
G04 #@! TO.C,R3*
X230514785Y-135596639D02*
X230514785Y-136119143D01*
X231934785Y-135596639D02*
X231934785Y-136119143D01*
G04 #@! TO.C,R2*
X235175825Y-135590399D02*
X235175825Y-136112903D01*
X233755825Y-135590399D02*
X233755825Y-136112903D01*
D13*
G04 #@! TO.C,U1*
X242516672Y-136914828D02*
X236705380Y-136914828D01*
X236705380Y-136914828D02*
X236679049Y-135631395D01*
X236679049Y-135631395D02*
X227847827Y-135638083D01*
X227847827Y-135638083D02*
X227849803Y-136840336D01*
X227849803Y-136840336D02*
X218769007Y-136814258D01*
X218769007Y-136814258D02*
X218783005Y-105644107D01*
X218783005Y-105644107D02*
X219015816Y-105041314D01*
X219015816Y-105041314D02*
X219299299Y-104496433D01*
X219299299Y-104496433D02*
X219633947Y-104010023D01*
X219633947Y-104010023D02*
X220020247Y-103582648D01*
X220020247Y-103582648D02*
X220458688Y-103214859D01*
X220458688Y-103214859D02*
X220949760Y-102907223D01*
X220949760Y-102907223D02*
X221493950Y-102660290D01*
X221493950Y-102660290D02*
X222091747Y-102474624D01*
X222091747Y-102474624D02*
X241129660Y-102445866D01*
X241129660Y-102445866D02*
X241749024Y-102679859D01*
X241749024Y-102679859D02*
X242337218Y-102964342D01*
X242337218Y-102964342D02*
X242880645Y-103313857D01*
X242880645Y-103313857D02*
X243365703Y-103742942D01*
X243365703Y-103742942D02*
X243778795Y-104266140D01*
X243778795Y-104266140D02*
X244106322Y-104897987D01*
X244106322Y-104897987D02*
X244334682Y-105653025D01*
X244334682Y-105653025D02*
X244450278Y-106545793D01*
X244450278Y-106545793D02*
X244475226Y-129100885D01*
X244475226Y-129100885D02*
X242531680Y-130061781D01*
X242531680Y-130061781D02*
X242501886Y-136870124D01*
X228519550Y-130689051D02*
X235659131Y-130689051D01*
X235659131Y-130689051D02*
X235659131Y-136502788D01*
X235659131Y-136502788D02*
X228519550Y-136502788D01*
X228519550Y-136502788D02*
X228519550Y-130689051D01*
X242442800Y-130039949D02*
X240890578Y-130039949D01*
X240890578Y-130039949D02*
X240361411Y-130569115D01*
X240361411Y-130569115D02*
X239109050Y-130569115D01*
X239109050Y-130569115D02*
X239109050Y-135631476D01*
X239109050Y-135631476D02*
X240396689Y-135631476D01*
X240396689Y-135631476D02*
X240925856Y-136125365D01*
X240925856Y-136125365D02*
X242495717Y-136125365D01*
X242495717Y-136125365D02*
X242442800Y-130039949D01*
X242478078Y-132121338D02*
X243130717Y-132121338D01*
X243130717Y-132121338D02*
X243130717Y-134114532D01*
X243130717Y-134114532D02*
X242513356Y-134114532D01*
D14*
G04 #@! TO.C,J2*
X217181600Y-120231200D02*
G75*
G03X217181600Y-120231200I-12000000J0D01*
G01*
X217181600Y-103731200D02*
X217181600Y-136731200D01*
X217181600Y-136731200D02*
X193181600Y-136731200D01*
X193181600Y-136731200D02*
X193181600Y-103731200D01*
X193181600Y-103731200D02*
X217181600Y-103731200D01*
D12*
G04 #@! TO.C,D1*
X260585200Y-113705600D02*
X260455200Y-113705600D01*
X260455200Y-113705600D02*
X260455200Y-108265600D01*
X260455200Y-108265600D02*
X260585200Y-108265600D01*
X263265200Y-113705600D02*
X263395200Y-113705600D01*
X263395200Y-113705600D02*
X263395200Y-108265600D01*
X263395200Y-108265600D02*
X263265200Y-108265600D01*
X260455200Y-112805600D02*
X263395200Y-112805600D01*
X260455200Y-112685600D02*
X263395200Y-112685600D01*
X260455200Y-112925600D02*
X263395200Y-112925600D01*
G04 #@! TO.C,K1*
X254476800Y-118475600D02*
X247876800Y-118475600D01*
X263476800Y-118475600D02*
X256876800Y-118475600D01*
X263476800Y-118475600D02*
X263476800Y-138275600D01*
X263476800Y-138275600D02*
X247876800Y-138275600D01*
X247876800Y-138275600D02*
X247876800Y-118475600D01*
X251476800Y-134025600D02*
X253926800Y-134025600D01*
X259876800Y-134025600D02*
X257376800Y-134025600D01*
X249626800Y-123425600D02*
X249626800Y-125925600D01*
X255626800Y-122525600D02*
X255626800Y-121725600D01*
X261626800Y-125925600D02*
X261626800Y-123425600D01*
X255626800Y-129325600D02*
X255626800Y-130825600D01*
X255626800Y-130825600D02*
X258126800Y-135425600D01*
X252026800Y-129325600D02*
X252026800Y-122525600D01*
X255626800Y-129325600D02*
X252026800Y-129325600D01*
X255626800Y-122525600D02*
X252026800Y-122525600D01*
X261626800Y-125925600D02*
X257426800Y-125925600D01*
X253826800Y-125925600D02*
X249626800Y-125925600D01*
X253826800Y-127925600D02*
X257426800Y-123925600D01*
X253826800Y-123925600D02*
X257426800Y-123925600D01*
X257426800Y-123925600D02*
X257426800Y-127925600D01*
X257426800Y-127925600D02*
X253826800Y-127925600D01*
X253826800Y-127925600D02*
X253826800Y-123925600D01*
G04 #@! TO.C,Q1*
X251286800Y-112233600D02*
X251286800Y-115833600D01*
X251298322Y-112195122D02*
G75*
G02X255736800Y-114033600I1838478J-1838478D01*
G01*
X251298322Y-115872078D02*
G75*
G03X255736800Y-114033600I1838478J1838478D01*
G01*
G04 #@! TO.C,R1*
X250240000Y-113823148D02*
X250240000Y-114345652D01*
X248820000Y-113823148D02*
X248820000Y-114345652D01*
G04 #@! TO.C,J1*
X263089200Y-144513600D02*
G75*
G03X263089200Y-144513600I-2180000J0D01*
G01*
X258089200Y-144513600D02*
G75*
G03X258089200Y-144513600I-2180000J0D01*
G01*
X253089200Y-144513600D02*
G75*
G03X253089200Y-144513600I-2180000J0D01*
G01*
X263469200Y-139913600D02*
X248349200Y-139913600D01*
X263469200Y-141013600D02*
X248349200Y-141013600D01*
X263469200Y-148573600D02*
X248349200Y-148573600D01*
X263469200Y-139453600D02*
X248349200Y-139453600D01*
X263469200Y-148573600D02*
X263469200Y-139453600D01*
X248349200Y-148573600D02*
X248349200Y-139453600D01*
X259255200Y-145901600D02*
X259362200Y-145794600D01*
X262191200Y-142966600D02*
X262297200Y-142859600D01*
X259521200Y-146167600D02*
X259628200Y-146060600D01*
X262457200Y-143232600D02*
X262563200Y-143125600D01*
X254255200Y-145901600D02*
X254650200Y-145505600D01*
X256916200Y-143239600D02*
X257296200Y-142859600D01*
X254521200Y-146167600D02*
X254901200Y-145787600D01*
X257167200Y-143521600D02*
X257562200Y-143125600D01*
X249255200Y-145901600D02*
X249650200Y-145505600D01*
X251916200Y-143239600D02*
X252296200Y-142859600D01*
X249521200Y-146167600D02*
X249901200Y-145787600D01*
X252167200Y-143521600D02*
X252562200Y-143125600D01*
X263709200Y-139853600D02*
X263709200Y-139213600D01*
X263709200Y-139213600D02*
X263309200Y-139213600D01*
G04 #@! TO.C,J3*
D15*
X192923180Y-148555333D02*
X193637466Y-148555333D01*
X193780323Y-148602952D01*
X193875561Y-148698190D01*
X193923180Y-148841047D01*
X193923180Y-148936285D01*
X192923180Y-148174380D02*
X192923180Y-147555333D01*
X193304133Y-147888666D01*
X193304133Y-147745809D01*
X193351752Y-147650571D01*
X193399371Y-147602952D01*
X193494609Y-147555333D01*
X193732704Y-147555333D01*
X193827942Y-147602952D01*
X193875561Y-147650571D01*
X193923180Y-147745809D01*
X193923180Y-148031523D01*
X193875561Y-148126761D01*
X193827942Y-148174380D01*
G04 #@! TO.C,L293D*
X201733752Y-142019580D02*
X201257561Y-142019580D01*
X201257561Y-141019580D01*
X202019466Y-141114819D02*
X202067085Y-141067200D01*
X202162323Y-141019580D01*
X202400419Y-141019580D01*
X202495657Y-141067200D01*
X202543276Y-141114819D01*
X202590895Y-141210057D01*
X202590895Y-141305295D01*
X202543276Y-141448152D01*
X201971847Y-142019580D01*
X202590895Y-142019580D01*
X203067085Y-142019580D02*
X203257561Y-142019580D01*
X203352800Y-141971961D01*
X203400419Y-141924342D01*
X203495657Y-141781485D01*
X203543276Y-141591009D01*
X203543276Y-141210057D01*
X203495657Y-141114819D01*
X203448038Y-141067200D01*
X203352800Y-141019580D01*
X203162323Y-141019580D01*
X203067085Y-141067200D01*
X203019466Y-141114819D01*
X202971847Y-141210057D01*
X202971847Y-141448152D01*
X203019466Y-141543390D01*
X203067085Y-141591009D01*
X203162323Y-141638628D01*
X203352800Y-141638628D01*
X203448038Y-141591009D01*
X203495657Y-141543390D01*
X203543276Y-141448152D01*
X203876609Y-141019580D02*
X204495657Y-141019580D01*
X204162323Y-141400533D01*
X204305180Y-141400533D01*
X204400419Y-141448152D01*
X204448038Y-141495771D01*
X204495657Y-141591009D01*
X204495657Y-141829104D01*
X204448038Y-141924342D01*
X204400419Y-141971961D01*
X204305180Y-142019580D01*
X204019466Y-142019580D01*
X203924228Y-141971961D01*
X203876609Y-141924342D01*
X204924228Y-142019580D02*
X204924228Y-141019580D01*
X205162323Y-141019580D01*
X205305180Y-141067200D01*
X205400419Y-141162438D01*
X205448038Y-141257676D01*
X205495657Y-141448152D01*
X205495657Y-141591009D01*
X205448038Y-141781485D01*
X205400419Y-141876723D01*
X205305180Y-141971961D01*
X205162323Y-142019580D01*
X204924228Y-142019580D01*
G04 #@! TO.C,D3*
X227245649Y-142232151D02*
X227245649Y-141232151D01*
X227483745Y-141232151D01*
X227626602Y-141279771D01*
X227721840Y-141375009D01*
X227769459Y-141470247D01*
X227817078Y-141660723D01*
X227817078Y-141803580D01*
X227769459Y-141994056D01*
X227721840Y-142089294D01*
X227626602Y-142184532D01*
X227483745Y-142232151D01*
X227245649Y-142232151D01*
X228150411Y-141232151D02*
X228769459Y-141232151D01*
X228436125Y-141613104D01*
X228578983Y-141613104D01*
X228674221Y-141660723D01*
X228721840Y-141708342D01*
X228769459Y-141803580D01*
X228769459Y-142041675D01*
X228721840Y-142136913D01*
X228674221Y-142184532D01*
X228578983Y-142232151D01*
X228293268Y-142232151D01*
X228198030Y-142184532D01*
X228150411Y-142136913D01*
G04 #@! TO.C,D2*
X230503904Y-142297580D02*
X230503904Y-141297580D01*
X230742000Y-141297580D01*
X230884857Y-141345200D01*
X230980095Y-141440438D01*
X231027714Y-141535676D01*
X231075333Y-141726152D01*
X231075333Y-141869009D01*
X231027714Y-142059485D01*
X230980095Y-142154723D01*
X230884857Y-142249961D01*
X230742000Y-142297580D01*
X230503904Y-142297580D01*
X231456285Y-141392819D02*
X231503904Y-141345200D01*
X231599142Y-141297580D01*
X231837238Y-141297580D01*
X231932476Y-141345200D01*
X231980095Y-141392819D01*
X232027714Y-141488057D01*
X232027714Y-141583295D01*
X231980095Y-141726152D01*
X231408666Y-142297580D01*
X232027714Y-142297580D01*
G04 #@! TO.C,R3*
X233327165Y-136024557D02*
X232850975Y-136357891D01*
X233327165Y-136595986D02*
X232327165Y-136595986D01*
X232327165Y-136215033D01*
X232374785Y-136119795D01*
X232422404Y-136072176D01*
X232517642Y-136024557D01*
X232660499Y-136024557D01*
X232755737Y-136072176D01*
X232803356Y-136119795D01*
X232850975Y-136215033D01*
X232850975Y-136595986D01*
X232327165Y-135691224D02*
X232327165Y-135072176D01*
X232708118Y-135405510D01*
X232708118Y-135262652D01*
X232755737Y-135167414D01*
X232803356Y-135119795D01*
X232898594Y-135072176D01*
X233136689Y-135072176D01*
X233231927Y-135119795D01*
X233279546Y-135167414D01*
X233327165Y-135262652D01*
X233327165Y-135548367D01*
X233279546Y-135643605D01*
X233231927Y-135691224D01*
G04 #@! TO.C,R2*
X236568205Y-136018317D02*
X236092015Y-136351651D01*
X236568205Y-136589746D02*
X235568205Y-136589746D01*
X235568205Y-136208793D01*
X235615825Y-136113555D01*
X235663444Y-136065936D01*
X235758682Y-136018317D01*
X235901539Y-136018317D01*
X235996777Y-136065936D01*
X236044396Y-136113555D01*
X236092015Y-136208793D01*
X236092015Y-136589746D01*
X235663444Y-135637365D02*
X235615825Y-135589746D01*
X235568205Y-135494508D01*
X235568205Y-135256412D01*
X235615825Y-135161174D01*
X235663444Y-135113555D01*
X235758682Y-135065936D01*
X235853920Y-135065936D01*
X235996777Y-135113555D01*
X236568205Y-135684984D01*
X236568205Y-135065936D01*
G04 #@! TO.C,U1*
X232207295Y-138899980D02*
X232207295Y-139709504D01*
X232254914Y-139804742D01*
X232302533Y-139852361D01*
X232397771Y-139899980D01*
X232588247Y-139899980D01*
X232683485Y-139852361D01*
X232731104Y-139804742D01*
X232778723Y-139709504D01*
X232778723Y-138899980D01*
X233778723Y-139899980D02*
X233207295Y-139899980D01*
X233493009Y-139899980D02*
X233493009Y-138899980D01*
X233397771Y-139042838D01*
X233302533Y-139138076D01*
X233207295Y-139185695D01*
X224842057Y-103754742D02*
X225556342Y-106754742D01*
X226127771Y-104611885D01*
X226699200Y-106754742D01*
X227413485Y-103754742D01*
X229699200Y-106611885D02*
X229413485Y-106754742D01*
X228842057Y-106754742D01*
X228556342Y-106611885D01*
X228413485Y-106326171D01*
X228413485Y-105183314D01*
X228556342Y-104897600D01*
X228842057Y-104754742D01*
X229413485Y-104754742D01*
X229699200Y-104897600D01*
X229842057Y-105183314D01*
X229842057Y-105469028D01*
X228413485Y-105754742D01*
X231127771Y-106754742D02*
X231127771Y-103754742D01*
X232127771Y-105897600D01*
X233127771Y-103754742D01*
X233127771Y-106754742D01*
X234984914Y-106754742D02*
X234699200Y-106611885D01*
X234556342Y-106469028D01*
X234413485Y-106183314D01*
X234413485Y-105326171D01*
X234556342Y-105040457D01*
X234699200Y-104897600D01*
X234984914Y-104754742D01*
X235413485Y-104754742D01*
X235699200Y-104897600D01*
X235842057Y-105040457D01*
X235984914Y-105326171D01*
X235984914Y-106183314D01*
X235842057Y-106469028D01*
X235699200Y-106611885D01*
X235413485Y-106754742D01*
X234984914Y-106754742D01*
X237127771Y-106611885D02*
X237413485Y-106754742D01*
X237984914Y-106754742D01*
X238270628Y-106611885D01*
X238413485Y-106326171D01*
X238413485Y-106183314D01*
X238270628Y-105897600D01*
X237984914Y-105754742D01*
X237556342Y-105754742D01*
X237270628Y-105611885D01*
X237127771Y-105326171D01*
X237127771Y-105183314D01*
X237270628Y-104897600D01*
X237556342Y-104754742D01*
X237984914Y-104754742D01*
X238270628Y-104897600D01*
G04 #@! TO.C,J2*
D16*
X202243504Y-120497866D02*
X202814933Y-120497866D01*
X202929219Y-120535961D01*
X203005409Y-120612152D01*
X203043504Y-120726438D01*
X203043504Y-120802628D01*
X202319695Y-120155009D02*
X202281600Y-120116914D01*
X202243504Y-120040723D01*
X202243504Y-119850247D01*
X202281600Y-119774057D01*
X202319695Y-119735961D01*
X202395885Y-119697866D01*
X202472076Y-119697866D01*
X202586361Y-119735961D01*
X203043504Y-120193104D01*
X203043504Y-119697866D01*
X205467314Y-123221676D02*
X205505409Y-123259771D01*
X205543504Y-123374057D01*
X205543504Y-123450247D01*
X205505409Y-123564533D01*
X205429219Y-123640723D01*
X205353028Y-123678819D01*
X205200647Y-123716914D01*
X205086361Y-123716914D01*
X204933980Y-123678819D01*
X204857790Y-123640723D01*
X204781600Y-123564533D01*
X204743504Y-123450247D01*
X204743504Y-123374057D01*
X204781600Y-123259771D01*
X204819695Y-123221676D01*
X205543504Y-122764533D02*
X205505409Y-122840723D01*
X205467314Y-122878819D01*
X205391123Y-122916914D01*
X205162552Y-122916914D01*
X205086361Y-122878819D01*
X205048266Y-122840723D01*
X205010171Y-122764533D01*
X205010171Y-122650247D01*
X205048266Y-122574057D01*
X205086361Y-122535961D01*
X205162552Y-122497866D01*
X205391123Y-122497866D01*
X205467314Y-122535961D01*
X205505409Y-122574057D01*
X205543504Y-122650247D01*
X205543504Y-122764533D01*
X205010171Y-122155009D02*
X205543504Y-122155009D01*
X205086361Y-122155009D02*
X205048266Y-122116914D01*
X205010171Y-122040723D01*
X205010171Y-121926438D01*
X205048266Y-121850247D01*
X205124457Y-121812152D01*
X205543504Y-121812152D01*
X205010171Y-121431200D02*
X205543504Y-121431200D01*
X205086361Y-121431200D02*
X205048266Y-121393104D01*
X205010171Y-121316914D01*
X205010171Y-121202628D01*
X205048266Y-121126438D01*
X205124457Y-121088342D01*
X205543504Y-121088342D01*
X205619695Y-120897866D02*
X205619695Y-120288342D01*
X204743504Y-119945485D02*
X204743504Y-119869295D01*
X204781600Y-119793104D01*
X204819695Y-119755009D01*
X204895885Y-119716914D01*
X205048266Y-119678819D01*
X205238742Y-119678819D01*
X205391123Y-119716914D01*
X205467314Y-119755009D01*
X205505409Y-119793104D01*
X205543504Y-119869295D01*
X205543504Y-119945485D01*
X205505409Y-120021676D01*
X205467314Y-120059771D01*
X205391123Y-120097866D01*
X205238742Y-120135961D01*
X205048266Y-120135961D01*
X204895885Y-120097866D01*
X204819695Y-120059771D01*
X204781600Y-120021676D01*
X204743504Y-119945485D01*
X205543504Y-118916914D02*
X205543504Y-119374057D01*
X205543504Y-119145485D02*
X204743504Y-119145485D01*
X204857790Y-119221676D01*
X204933980Y-119297866D01*
X204972076Y-119374057D01*
X205543504Y-118650247D02*
X205010171Y-118231200D01*
X205010171Y-118650247D02*
X205543504Y-118231200D01*
X204743504Y-117774057D02*
X204743504Y-117697866D01*
X204781600Y-117621676D01*
X204819695Y-117583580D01*
X204895885Y-117545485D01*
X205048266Y-117507390D01*
X205238742Y-117507390D01*
X205391123Y-117545485D01*
X205467314Y-117583580D01*
X205505409Y-117621676D01*
X205543504Y-117697866D01*
X205543504Y-117774057D01*
X205505409Y-117850247D01*
X205467314Y-117888342D01*
X205391123Y-117926438D01*
X205238742Y-117964533D01*
X205048266Y-117964533D01*
X204895885Y-117926438D01*
X204819695Y-117888342D01*
X204781600Y-117850247D01*
X204743504Y-117774057D01*
X204743504Y-116821676D02*
X204743504Y-116974057D01*
X204781600Y-117050247D01*
X204819695Y-117088342D01*
X204933980Y-117164533D01*
X205086361Y-117202628D01*
X205391123Y-117202628D01*
X205467314Y-117164533D01*
X205505409Y-117126438D01*
X205543504Y-117050247D01*
X205543504Y-116897866D01*
X205505409Y-116821676D01*
X205467314Y-116783580D01*
X205391123Y-116745485D01*
X205200647Y-116745485D01*
X205124457Y-116783580D01*
X205086361Y-116821676D01*
X205048266Y-116897866D01*
X205048266Y-117050247D01*
X205086361Y-117126438D01*
X205124457Y-117164533D01*
X205200647Y-117202628D01*
G04 #@! TO.C,D1*
D15*
X259907580Y-111723695D02*
X258907580Y-111723695D01*
X258907580Y-111485600D01*
X258955200Y-111342742D01*
X259050438Y-111247504D01*
X259145676Y-111199885D01*
X259336152Y-111152266D01*
X259479009Y-111152266D01*
X259669485Y-111199885D01*
X259764723Y-111247504D01*
X259859961Y-111342742D01*
X259907580Y-111485600D01*
X259907580Y-111723695D01*
X259907580Y-110199885D02*
X259907580Y-110771314D01*
X259907580Y-110485600D02*
X258907580Y-110485600D01*
X259050438Y-110580838D01*
X259145676Y-110676076D01*
X259193295Y-110771314D01*
X260277580Y-115057504D02*
X259277580Y-115057504D01*
X260277580Y-114486076D02*
X259706152Y-114914647D01*
X259277580Y-114486076D02*
X259849009Y-115057504D01*
G04 #@! TO.C,K1*
X246929180Y-128713695D02*
X245929180Y-128713695D01*
X246929180Y-128142266D02*
X246357752Y-128570838D01*
X245929180Y-128142266D02*
X246500609Y-128713695D01*
X246929180Y-127189885D02*
X246929180Y-127761314D01*
X246929180Y-127475600D02*
X245929180Y-127475600D01*
X246072038Y-127570838D01*
X246167276Y-127666076D01*
X246214895Y-127761314D01*
G04 #@! TO.C,Q1*
X257244419Y-114128838D02*
X257196800Y-114224076D01*
X257101561Y-114319314D01*
X256958704Y-114462171D01*
X256911085Y-114557409D01*
X256911085Y-114652647D01*
X257149180Y-114605028D02*
X257101561Y-114700266D01*
X257006323Y-114795504D01*
X256815847Y-114843123D01*
X256482514Y-114843123D01*
X256292038Y-114795504D01*
X256196800Y-114700266D01*
X256149180Y-114605028D01*
X256149180Y-114414552D01*
X256196800Y-114319314D01*
X256292038Y-114224076D01*
X256482514Y-114176457D01*
X256815847Y-114176457D01*
X257006323Y-114224076D01*
X257101561Y-114319314D01*
X257149180Y-114414552D01*
X257149180Y-114605028D01*
X257149180Y-113224076D02*
X257149180Y-113795504D01*
X257149180Y-113509790D02*
X256149180Y-113509790D01*
X256292038Y-113605028D01*
X256387276Y-113700266D01*
X256434895Y-113795504D01*
G04 #@! TO.C,R1*
X251632380Y-114251066D02*
X251156190Y-114584400D01*
X251632380Y-114822495D02*
X250632380Y-114822495D01*
X250632380Y-114441542D01*
X250680000Y-114346304D01*
X250727619Y-114298685D01*
X250822857Y-114251066D01*
X250965714Y-114251066D01*
X251060952Y-114298685D01*
X251108571Y-114346304D01*
X251156190Y-114441542D01*
X251156190Y-114822495D01*
X251632380Y-113298685D02*
X251632380Y-113870114D01*
X251632380Y-113584400D02*
X250632380Y-113584400D01*
X250775238Y-113679638D01*
X250870476Y-113774876D01*
X250918095Y-113870114D01*
G04 #@! TO.C,J1*
X255575866Y-149025980D02*
X255575866Y-149740266D01*
X255528247Y-149883123D01*
X255433009Y-149978361D01*
X255290152Y-150025980D01*
X255194914Y-150025980D01*
X256575866Y-150025980D02*
X256004438Y-150025980D01*
X256290152Y-150025980D02*
X256290152Y-149025980D01*
X256194914Y-149168838D01*
X256099676Y-149264076D01*
X256004438Y-149311695D01*
G04 #@! TD*
M02*
