G04 #@! TF.GenerationSoftware,KiCad,Pcbnew,(5.0.0-3-g5ebb6b6)*
G04 #@! TF.CreationDate,2018-10-04T16:31:17-06:00*
G04 #@! TF.ProjectId,Hallow,48616C6C6F772E6B696361645F706362,rev?*
G04 #@! TF.SameCoordinates,Original*
G04 #@! TF.FileFunction,Copper,L2,Bot,Signal*
G04 #@! TF.FilePolarity,Positive*
%FSLAX46Y46*%
G04 Gerber Fmt 4.6, Leading zero omitted, Abs format (unit mm)*
G04 Created by KiCad (PCBNEW (5.0.0-3-g5ebb6b6)) date Thursday, October 04, 2018 at 04:31:17 PM*
%MOMM*%
%LPD*%
G01*
G04 APERTURE LIST*
G04 #@! TA.AperFunction,ComponentPad*
%ADD10R,1.700000X1.700000*%
G04 #@! TD*
G04 #@! TA.AperFunction,ComponentPad*
%ADD11O,1.700000X1.700000*%
G04 #@! TD*
G04 #@! TA.AperFunction,ComponentPad*
%ADD12R,1.600000X1.600000*%
G04 #@! TD*
G04 #@! TA.AperFunction,ComponentPad*
%ADD13O,1.600000X1.600000*%
G04 #@! TD*
G04 #@! TA.AperFunction,ComponentPad*
%ADD14C,1.800000*%
G04 #@! TD*
G04 #@! TA.AperFunction,ComponentPad*
%ADD15C,1.500000*%
G04 #@! TD*
G04 #@! TA.AperFunction,ComponentPad*
%ADD16R,2.200000X2.200000*%
G04 #@! TD*
G04 #@! TA.AperFunction,ComponentPad*
%ADD17O,2.200000X2.200000*%
G04 #@! TD*
G04 #@! TA.AperFunction,ComponentPad*
%ADD18C,2.500000*%
G04 #@! TD*
G04 #@! TA.AperFunction,ComponentPad*
%ADD19C,3.000000*%
G04 #@! TD*
G04 #@! TA.AperFunction,ComponentPad*
%ADD20O,1.500000X1.050000*%
G04 #@! TD*
G04 #@! TA.AperFunction,ComponentPad*
%ADD21R,1.500000X1.050000*%
G04 #@! TD*
G04 #@! TA.AperFunction,ComponentPad*
%ADD22R,2.600000X2.600000*%
G04 #@! TD*
G04 #@! TA.AperFunction,ComponentPad*
%ADD23C,2.600000*%
G04 #@! TD*
G04 #@! TA.AperFunction,ViaPad*
%ADD24C,0.900000*%
G04 #@! TD*
G04 #@! TA.AperFunction,Conductor*
%ADD25C,0.200000*%
G04 #@! TD*
G04 APERTURE END LIST*
D10*
G04 #@! TO.P,J3,1*
G04 #@! TO.N,/Vcc2*
X196240800Y-148222000D03*
D11*
G04 #@! TO.P,J3,2*
G04 #@! TO.N,GND*
X198780800Y-148222000D03*
G04 #@! TO.P,J3,3*
G04 #@! TO.N,/Out1*
X201320800Y-148222000D03*
G04 #@! TO.P,J3,4*
G04 #@! TO.N,/Out2*
X203860800Y-148222000D03*
G04 #@! TO.P,J3,5*
G04 #@! TO.N,/Out3*
X206400800Y-148222000D03*
G04 #@! TO.P,J3,6*
G04 #@! TO.N,/Out4*
X208940800Y-148222000D03*
G04 #@! TD*
D12*
G04 #@! TO.P,L293D,1*
G04 #@! TO.N,/GPIO18(GEN1)(PWM0)*
X194361200Y-145478800D03*
D13*
G04 #@! TO.P,L293D,9*
G04 #@! TO.N,/GPIO13(PWM1)*
X212141200Y-137858800D03*
G04 #@! TO.P,L293D,2*
G04 #@! TO.N,/GPIO23(GEN4)*
X196901200Y-145478800D03*
G04 #@! TO.P,L293D,10*
G04 #@! TO.N,/GPIO22(GEN3)*
X209601200Y-137858800D03*
G04 #@! TO.P,L293D,3*
G04 #@! TO.N,/Out1*
X199441200Y-145478800D03*
G04 #@! TO.P,L293D,11*
G04 #@! TO.N,/Out3*
X207061200Y-137858800D03*
G04 #@! TO.P,L293D,4*
G04 #@! TO.N,GND*
X201981200Y-145478800D03*
G04 #@! TO.P,L293D,12*
X204521200Y-137858800D03*
G04 #@! TO.P,L293D,5*
X204521200Y-145478800D03*
G04 #@! TO.P,L293D,13*
X201981200Y-137858800D03*
G04 #@! TO.P,L293D,6*
G04 #@! TO.N,/Out2*
X207061200Y-145478800D03*
G04 #@! TO.P,L293D,14*
G04 #@! TO.N,/Out4*
X199441200Y-137858800D03*
G04 #@! TO.P,L293D,7*
G04 #@! TO.N,/GPIO24(GEN5)*
X209601200Y-145478800D03*
G04 #@! TO.P,L293D,15*
G04 #@! TO.N,/GPIO25(GEN6)*
X196901200Y-137858800D03*
G04 #@! TO.P,L293D,8*
G04 #@! TO.N,/Vcc2*
X212141200Y-145478800D03*
G04 #@! TO.P,L293D,16*
X194361200Y-137858800D03*
G04 #@! TD*
D11*
G04 #@! TO.P,D3,2*
G04 #@! TO.N,/WM_D7*
X227983745Y-147089771D03*
D10*
G04 #@! TO.P,D3,1*
G04 #@! TO.N,Net-(D3-Pad1)*
X227983745Y-144549771D03*
G04 #@! TD*
G04 #@! TO.P,D2,1*
G04 #@! TO.N,Net-(D2-Pad1)*
X231242000Y-144615200D03*
D11*
G04 #@! TO.P,D2,2*
G04 #@! TO.N,/WM_D8*
X231242000Y-147155200D03*
G04 #@! TD*
D14*
G04 #@! TO.P,U1,8*
G04 #@! TO.N,Net-(U1-Pad8)*
X220269200Y-110477600D03*
G04 #@! TO.P,U1,7*
G04 #@! TO.N,Net-(U1-Pad7)*
X220269200Y-113017600D03*
G04 #@! TO.P,U1,6*
G04 #@! TO.N,Net-(U1-Pad6)*
X220269200Y-115557600D03*
G04 #@! TO.P,U1,5*
G04 #@! TO.N,Net-(U1-Pad5)*
X220269200Y-118097600D03*
G04 #@! TO.P,U1,4*
G04 #@! TO.N,Net-(U1-Pad4)*
X220269200Y-120637600D03*
G04 #@! TO.P,U1,3*
G04 #@! TO.N,Net-(U1-Pad3)*
X220269200Y-123177600D03*
G04 #@! TO.P,U1,2*
G04 #@! TO.N,/WM_GND*
X220269200Y-125717600D03*
G04 #@! TO.P,U1,1*
G04 #@! TO.N,Net-(U1-Pad1)*
X220269200Y-128257600D03*
G04 #@! TO.P,U1,16*
G04 #@! TO.N,Net-(U1-Pad16)*
X243129200Y-128257600D03*
G04 #@! TO.P,U1,15*
G04 #@! TO.N,/WM_D8*
X243129200Y-125717600D03*
G04 #@! TO.P,U1,14*
G04 #@! TO.N,/WM_D7*
X243129200Y-123177600D03*
G04 #@! TO.P,U1,13*
G04 #@! TO.N,Net-(U1-Pad13)*
X243129200Y-120637600D03*
G04 #@! TO.P,U1,12*
G04 #@! TO.N,Net-(U1-Pad12)*
X243129200Y-118097600D03*
G04 #@! TO.P,U1,11*
G04 #@! TO.N,Net-(U1-Pad11)*
X243129200Y-115557600D03*
G04 #@! TO.P,U1,10*
G04 #@! TO.N,Net-(U1-Pad10)*
X243129200Y-113017600D03*
G04 #@! TO.P,U1,9*
G04 #@! TO.N,Net-(U1-Pad9)*
X243129200Y-110477600D03*
G04 #@! TD*
D15*
G04 #@! TO.P,J2,1*
G04 #@! TO.N,Net-(J2-Pad1)*
X215181600Y-105731200D03*
G04 #@! TO.P,J2,2*
G04 #@! TO.N,Net-(J2-Pad2)*
X212681600Y-105731200D03*
G04 #@! TO.P,J2,3*
G04 #@! TO.N,Net-(J2-Pad3)*
X210181600Y-105731200D03*
G04 #@! TO.P,J2,4*
G04 #@! TO.N,GND*
X195181600Y-117731200D03*
G04 #@! TO.P,J2,5*
G04 #@! TO.N,/GPIO27(GEN2)*
X195181600Y-120231200D03*
G04 #@! TO.P,J2,6*
G04 #@! TO.N,+5V*
X195181600Y-122731200D03*
G04 #@! TD*
D16*
G04 #@! TO.P,D1,1*
G04 #@! TO.N,+5V*
X261925200Y-114795600D03*
D17*
G04 #@! TO.P,D1,2*
G04 #@! TO.N,/RLY1*
X261925200Y-107175600D03*
G04 #@! TD*
D18*
G04 #@! TO.P,K1,2*
G04 #@! TO.N,/RLY(COM)*
X249626800Y-121825600D03*
D19*
G04 #@! TO.P,K1,3*
G04 #@! TO.N,/RLY(NO)*
X249626800Y-134025600D03*
G04 #@! TO.P,K1,4*
G04 #@! TO.N,/RLY(NC)*
X261676800Y-134075600D03*
D18*
G04 #@! TO.P,K1,5*
G04 #@! TO.N,+5V*
X261626800Y-121825600D03*
D19*
G04 #@! TO.P,K1,1*
G04 #@! TO.N,/RLY1*
X255676800Y-119875600D03*
G04 #@! TD*
D20*
G04 #@! TO.P,Q1,2*
G04 #@! TO.N,Net-(Q1-Pad2)*
X253136800Y-114033600D03*
G04 #@! TO.P,Q1,3*
G04 #@! TO.N,/RLY1*
X253136800Y-115303600D03*
D21*
G04 #@! TO.P,Q1,1*
G04 #@! TO.N,GND*
X253136800Y-112763600D03*
G04 #@! TD*
D22*
G04 #@! TO.P,J1,1*
G04 #@! TO.N,/RLY(NC)*
X260909200Y-144513600D03*
D23*
G04 #@! TO.P,J1,2*
G04 #@! TO.N,/RLY(COM)*
X255909200Y-144513600D03*
G04 #@! TO.P,J1,3*
G04 #@! TO.N,/RLY(NO)*
X250909200Y-144513600D03*
G04 #@! TD*
D10*
G04 #@! TO.P,P1,1*
G04 #@! TO.N,+3V3*
X208370000Y-98770000D03*
D11*
G04 #@! TO.P,P1,2*
G04 #@! TO.N,+5V*
X208370000Y-96230000D03*
G04 #@! TO.P,P1,3*
G04 #@! TO.N,/GPIO2(SDA1)*
X210910000Y-98770000D03*
G04 #@! TO.P,P1,4*
G04 #@! TO.N,+5V*
X210910000Y-96230000D03*
G04 #@! TO.P,P1,5*
G04 #@! TO.N,/GPIO3(SCL1)*
X213450000Y-98770000D03*
G04 #@! TO.P,P1,6*
G04 #@! TO.N,GND*
X213450000Y-96230000D03*
G04 #@! TO.P,P1,7*
G04 #@! TO.N,/GPIO4(GCLK)*
X215990000Y-98770000D03*
G04 #@! TO.P,P1,8*
G04 #@! TO.N,/GPIO14(TXD0)*
X215990000Y-96230000D03*
G04 #@! TO.P,P1,9*
G04 #@! TO.N,GND*
X218530000Y-98770000D03*
G04 #@! TO.P,P1,10*
G04 #@! TO.N,/GPIO15(RXD0)*
X218530000Y-96230000D03*
G04 #@! TO.P,P1,11*
G04 #@! TO.N,/GPIO17(GEN0)*
X221070000Y-98770000D03*
G04 #@! TO.P,P1,12*
G04 #@! TO.N,/GPIO18(GEN1)(PWM0)*
X221070000Y-96230000D03*
G04 #@! TO.P,P1,13*
G04 #@! TO.N,/GPIO27(GEN2)*
X223610000Y-98770000D03*
G04 #@! TO.P,P1,14*
G04 #@! TO.N,GND*
X223610000Y-96230000D03*
G04 #@! TO.P,P1,15*
G04 #@! TO.N,/GPIO22(GEN3)*
X226150000Y-98770000D03*
G04 #@! TO.P,P1,16*
G04 #@! TO.N,/GPIO23(GEN4)*
X226150000Y-96230000D03*
G04 #@! TO.P,P1,17*
G04 #@! TO.N,+3V3*
X228690000Y-98770000D03*
G04 #@! TO.P,P1,18*
G04 #@! TO.N,/GPIO24(GEN5)*
X228690000Y-96230000D03*
G04 #@! TO.P,P1,19*
G04 #@! TO.N,/GPIO10(SPI0_MOSI)*
X231230000Y-98770000D03*
G04 #@! TO.P,P1,20*
G04 #@! TO.N,GND*
X231230000Y-96230000D03*
G04 #@! TO.P,P1,21*
G04 #@! TO.N,/GPIO9(SPI0_MISO)*
X233770000Y-98770000D03*
G04 #@! TO.P,P1,22*
G04 #@! TO.N,/GPIO25(GEN6)*
X233770000Y-96230000D03*
G04 #@! TO.P,P1,23*
G04 #@! TO.N,/GPIO11(SPI0_SCK)*
X236310000Y-98770000D03*
G04 #@! TO.P,P1,24*
G04 #@! TO.N,/GPIO8(SPI0_CE_N)*
X236310000Y-96230000D03*
G04 #@! TO.P,P1,25*
G04 #@! TO.N,GND*
X238850000Y-98770000D03*
G04 #@! TO.P,P1,26*
G04 #@! TO.N,/GPIO7(SPI1_CE_N)*
X238850000Y-96230000D03*
G04 #@! TO.P,P1,27*
G04 #@! TO.N,/ID_SD*
X241390000Y-98770000D03*
G04 #@! TO.P,P1,28*
G04 #@! TO.N,/ID_SC*
X241390000Y-96230000D03*
G04 #@! TO.P,P1,29*
G04 #@! TO.N,/GPIO5*
X243930000Y-98770000D03*
G04 #@! TO.P,P1,30*
G04 #@! TO.N,GND*
X243930000Y-96230000D03*
G04 #@! TO.P,P1,31*
G04 #@! TO.N,/GPIO6*
X246470000Y-98770000D03*
G04 #@! TO.P,P1,32*
G04 #@! TO.N,/GPIO12(PWM0)*
X246470000Y-96230000D03*
G04 #@! TO.P,P1,33*
G04 #@! TO.N,/GPIO13(PWM1)*
X249010000Y-98770000D03*
G04 #@! TO.P,P1,34*
G04 #@! TO.N,GND*
X249010000Y-96230000D03*
G04 #@! TO.P,P1,35*
G04 #@! TO.N,/GPIO19(SPI1_MISO)*
X251550000Y-98770000D03*
G04 #@! TO.P,P1,36*
G04 #@! TO.N,/GPIO16*
X251550000Y-96230000D03*
G04 #@! TO.P,P1,37*
G04 #@! TO.N,/GPIO26*
X254090000Y-98770000D03*
G04 #@! TO.P,P1,38*
G04 #@! TO.N,/GPIO20(SPI1_MOSI)*
X254090000Y-96230000D03*
G04 #@! TO.P,P1,39*
G04 #@! TO.N,GND*
X256630000Y-98770000D03*
G04 #@! TO.P,P1,40*
G04 #@! TO.N,/GPIO21(SPI1_SCK)*
X256630000Y-96230000D03*
G04 #@! TD*
D24*
G04 #@! TO.N,+5V*
X211328400Y-101435200D03*
X212801600Y-101435200D03*
X263754000Y-103467200D03*
X263754000Y-104788000D03*
G04 #@! TO.N,/GPIO17(GEN0)*
X225908000Y-100825600D03*
X225908000Y-101892400D03*
X219304000Y-101079600D03*
X220421600Y-101079600D03*
G04 #@! TO.N,/GPIO23(GEN4)*
X256591200Y-106413600D03*
X257556400Y-106413600D03*
X256591200Y-106413600D03*
X260045600Y-101028800D03*
X260604400Y-101536800D03*
G04 #@! TD*
D25*
G04 #@! TO.N,+3V3*
X227539999Y-97619999D02*
X227840001Y-97920001D01*
X208370000Y-97720000D02*
X208470001Y-97619999D01*
X227840001Y-97920001D02*
X228690000Y-98770000D01*
X208470001Y-97619999D02*
X227539999Y-97619999D01*
X208370000Y-98770000D02*
X208370000Y-97720000D01*
G04 #@! TO.N,+5V*
X216154400Y-104788000D02*
X212801600Y-101435200D01*
X263754000Y-104788000D02*
X216154400Y-104788000D01*
X212801600Y-101435200D02*
X211328400Y-101435200D01*
X213360400Y-103467200D02*
X211328400Y-101435200D01*
X263754000Y-103467200D02*
X213360400Y-103467200D01*
G04 #@! TO.N,/GPIO17(GEN0)*
X220675600Y-100825600D02*
X220421600Y-101079600D01*
X225908000Y-100825600D02*
X220675600Y-100825600D01*
X220116800Y-101892400D02*
X219304000Y-101079600D01*
X225908000Y-101892400D02*
X220116800Y-101892400D01*
X221070000Y-99313600D02*
X221070000Y-98770000D01*
X219304000Y-101079600D02*
X221070000Y-99313600D01*
X220421600Y-99418400D02*
X221070000Y-98770000D01*
X220421600Y-101079600D02*
X220421600Y-99418400D01*
G04 #@! TO.N,/GPIO23(GEN4)*
X229993197Y-121837601D02*
X245417198Y-106413600D01*
X213834397Y-121837601D02*
X229993197Y-121837601D01*
X198341199Y-144038801D02*
X198341199Y-137330799D01*
X198341199Y-137330799D02*
X213834397Y-121837601D01*
X196901200Y-145478800D02*
X198341199Y-144038801D01*
X245417198Y-106413600D02*
X256591200Y-106413600D01*
X256591200Y-106413600D02*
X257556400Y-106413600D01*
X257556400Y-106413600D02*
X257708800Y-106413600D01*
X256591200Y-106413600D02*
X256591200Y-106413600D01*
X226999999Y-95380001D02*
X226150000Y-96230000D01*
X227300001Y-95079999D02*
X226999999Y-95380001D01*
X257182001Y-95079999D02*
X227300001Y-95079999D01*
X260045600Y-97943598D02*
X257182001Y-95079999D01*
X260045600Y-101028800D02*
X260045600Y-97943598D01*
X255479999Y-95917997D02*
X254139202Y-94577200D01*
X257083997Y-97380001D02*
X256077999Y-97380001D01*
X255479999Y-96782001D02*
X255479999Y-95917997D01*
X256077999Y-97380001D02*
X255479999Y-96782001D01*
X260604400Y-100900404D02*
X257083997Y-97380001D01*
X260604400Y-101536800D02*
X260604400Y-100900404D01*
X227802800Y-94577200D02*
X226150000Y-96230000D01*
X254139202Y-94577200D02*
X227802800Y-94577200D01*
G04 #@! TO.N,/GPIO18(GEN1)(PWM0)*
X219214000Y-94374000D02*
X197460000Y-94374000D01*
X221070000Y-96230000D02*
X219214000Y-94374000D01*
X197460000Y-94374000D02*
X192938800Y-98895200D01*
X192938800Y-143056400D02*
X194361200Y-144478800D01*
X194361200Y-144478800D02*
X194361200Y-145478800D01*
X192938800Y-98895200D02*
X192938800Y-143056400D01*
G04 #@! TO.N,/GPIO13(PWM1)*
X223266400Y-148984000D02*
X212141200Y-137858800D01*
X261823600Y-148984000D02*
X223266400Y-148984000D01*
X264504001Y-146303599D02*
X261823600Y-148984000D01*
X264504001Y-103107199D02*
X264504001Y-146303599D01*
X264114001Y-102717199D02*
X264504001Y-103107199D01*
X252957199Y-102717199D02*
X264114001Y-102717199D01*
X249010000Y-98770000D02*
X252957199Y-102717199D01*
G04 #@! TO.N,/Out1*
X201320800Y-147358400D02*
X201320800Y-148222000D01*
X199441200Y-145478800D02*
X201320800Y-147358400D01*
G04 #@! TO.N,/Out2*
X206604000Y-145478800D02*
X207061200Y-145478800D01*
X203860800Y-148222000D02*
X206604000Y-145478800D01*
G04 #@! TO.N,/Out4*
X200241199Y-138658799D02*
X199441200Y-137858800D01*
X200541201Y-138958801D02*
X200241199Y-138658799D01*
X204709203Y-138958801D02*
X200541201Y-138958801D01*
X210701201Y-144950799D02*
X204709203Y-138958801D01*
X210701201Y-146461599D02*
X210701201Y-144950799D01*
X208940800Y-148222000D02*
X210701201Y-146461599D01*
G04 #@! TD*
M02*
