M48
;DRILL file {KiCad (5.0.0-3-g5ebb6b6)} date Thursday, October 04, 2018 at 04:30:33 PM
;FORMAT={-:-/ absolute / inch / decimal}
FMAT,2
INCH,TZ
T1C0.0236
T2C0.0295
T3C0.0315
T4C0.0354
T5C0.0394
T6C0.0400
T7C0.0433
T8C0.0512
T9C0.0787
%
G90
G05
M72
T1
X8.32Y-3.9935
X8.378Y-3.9935
X8.634Y-3.9795
X8.678Y-3.9795
X8.894Y-3.9695
X8.894Y-4.0115
X10.102Y-4.1895
X10.102Y-4.1895
X10.14Y-4.1895
X10.238Y-3.9775
X10.26Y-3.9975
X10.384Y-4.0735
X10.384Y-4.1255
T2
X9.966Y-4.4395
X9.966Y-4.4895
X9.966Y-4.5395
T3
X7.652Y-5.4275
X7.652Y-5.7275
X7.752Y-5.4275
X7.752Y-5.7275
X7.852Y-5.4275
X7.852Y-5.7275
X7.952Y-5.4275
X7.952Y-5.7275
X8.052Y-5.4275
X8.052Y-5.7275
X8.152Y-5.4275
X8.152Y-5.7275
X8.252Y-5.4275
X8.252Y-5.7275
X8.352Y-5.4275
X8.352Y-5.7275
T4
X7.6843Y-4.6351
X7.6843Y-4.7335
X7.6843Y-4.8319
X8.2749Y-4.1626
X8.3733Y-4.1626
X8.4717Y-4.1626
T5
X7.726Y-5.8355
X7.826Y-5.8355
X7.926Y-5.8355
X8.026Y-5.8355
X8.126Y-5.8355
X8.226Y-5.8355
X8.2035Y-3.7886
X8.2035Y-3.8886
X8.3035Y-3.7886
X8.3035Y-3.8886
X8.4035Y-3.7886
X8.4035Y-3.8886
X8.5035Y-3.7886
X8.5035Y-3.8886
X8.6035Y-3.7886
X8.6035Y-3.8886
X8.7035Y-3.7886
X8.7035Y-3.8886
X8.8035Y-3.7886
X8.8035Y-3.8886
X8.9035Y-3.7886
X8.9035Y-3.8886
X9.0035Y-3.7886
X9.0035Y-3.8886
X9.1035Y-3.7886
X9.1035Y-3.8886
X9.2035Y-3.7886
X9.2035Y-3.8886
X9.3035Y-3.7886
X9.3035Y-3.8886
X9.4035Y-3.7886
X9.4035Y-3.8886
X9.5035Y-3.7886
X9.5035Y-3.8886
X9.6035Y-3.7886
X9.6035Y-3.8886
X9.7035Y-3.7886
X9.7035Y-3.8886
X9.8035Y-3.7886
X9.8035Y-3.8886
X9.9035Y-3.7886
X9.9035Y-3.8886
X10.0035Y-3.7886
X10.0035Y-3.8886
X10.1035Y-3.7886
X10.1035Y-3.8886
X9.8278Y-4.7963
X10.3003Y-4.7963
X9.104Y-5.6935
X9.104Y-5.7935
X8.9757Y-5.6909
X8.9757Y-5.7909
T6
X8.672Y-4.3495
X8.672Y-4.4495
X8.672Y-4.5495
X8.672Y-4.6495
X8.672Y-4.7495
X8.672Y-4.8495
X8.672Y-4.9495
X8.672Y-5.0495
X9.572Y-4.3495
X9.572Y-4.4495
X9.572Y-4.5495
X9.572Y-4.6495
X9.572Y-4.7495
X9.572Y-4.8495
X9.572Y-4.9495
X9.572Y-5.0495
T7
X10.312Y-4.2195
X10.312Y-4.5195
T8
X9.8783Y-5.6895
X10.0752Y-5.6895
X10.272Y-5.6895
X9.8278Y-5.2766
X10.066Y-4.7195
X10.3022Y-5.2786
T9
X8.0386Y-4.143
X8.0386Y-5.3241
T0
M30
