G04 #@! TF.GenerationSoftware,KiCad,Pcbnew,(5.0.0-3-g5ebb6b6)*
G04 #@! TF.CreationDate,2018-10-04T16:31:17-06:00*
G04 #@! TF.ProjectId,Hallow,48616C6C6F772E6B696361645F706362,rev?*
G04 #@! TF.SameCoordinates,Original*
G04 #@! TF.FileFunction,Paste,Top*
G04 #@! TF.FilePolarity,Positive*
%FSLAX46Y46*%
G04 Gerber Fmt 4.6, Leading zero omitted, Abs format (unit mm)*
G04 Created by KiCad (PCBNEW (5.0.0-3-g5ebb6b6)) date Thursday, October 04, 2018 at 04:31:17 PM*
%MOMM*%
%LPD*%
G01*
G04 APERTURE LIST*
%ADD10C,0.150000*%
%ADD11C,1.150000*%
G04 APERTURE END LIST*
D10*
G04 #@! TO.C,R3*
G36*
X231699290Y-136309095D02*
X231723558Y-136312695D01*
X231747357Y-136318656D01*
X231770456Y-136326921D01*
X231792635Y-136337411D01*
X231813678Y-136350023D01*
X231833384Y-136364638D01*
X231851562Y-136381114D01*
X231868038Y-136399292D01*
X231882653Y-136418998D01*
X231895265Y-136440041D01*
X231905755Y-136462220D01*
X231914020Y-136485319D01*
X231919981Y-136509118D01*
X231923581Y-136533386D01*
X231924785Y-136557890D01*
X231924785Y-137207892D01*
X231923581Y-137232396D01*
X231919981Y-137256664D01*
X231914020Y-137280463D01*
X231905755Y-137303562D01*
X231895265Y-137325741D01*
X231882653Y-137346784D01*
X231868038Y-137366490D01*
X231851562Y-137384668D01*
X231833384Y-137401144D01*
X231813678Y-137415759D01*
X231792635Y-137428371D01*
X231770456Y-137438861D01*
X231747357Y-137447126D01*
X231723558Y-137453087D01*
X231699290Y-137456687D01*
X231674786Y-137457891D01*
X230774784Y-137457891D01*
X230750280Y-137456687D01*
X230726012Y-137453087D01*
X230702213Y-137447126D01*
X230679114Y-137438861D01*
X230656935Y-137428371D01*
X230635892Y-137415759D01*
X230616186Y-137401144D01*
X230598008Y-137384668D01*
X230581532Y-137366490D01*
X230566917Y-137346784D01*
X230554305Y-137325741D01*
X230543815Y-137303562D01*
X230535550Y-137280463D01*
X230529589Y-137256664D01*
X230525989Y-137232396D01*
X230524785Y-137207892D01*
X230524785Y-136557890D01*
X230525989Y-136533386D01*
X230529589Y-136509118D01*
X230535550Y-136485319D01*
X230543815Y-136462220D01*
X230554305Y-136440041D01*
X230566917Y-136418998D01*
X230581532Y-136399292D01*
X230598008Y-136381114D01*
X230616186Y-136364638D01*
X230635892Y-136350023D01*
X230656935Y-136337411D01*
X230679114Y-136326921D01*
X230702213Y-136318656D01*
X230726012Y-136312695D01*
X230750280Y-136309095D01*
X230774784Y-136307891D01*
X231674786Y-136307891D01*
X231699290Y-136309095D01*
X231699290Y-136309095D01*
G37*
D11*
X231224785Y-136882891D03*
D10*
G36*
X231699290Y-134259095D02*
X231723558Y-134262695D01*
X231747357Y-134268656D01*
X231770456Y-134276921D01*
X231792635Y-134287411D01*
X231813678Y-134300023D01*
X231833384Y-134314638D01*
X231851562Y-134331114D01*
X231868038Y-134349292D01*
X231882653Y-134368998D01*
X231895265Y-134390041D01*
X231905755Y-134412220D01*
X231914020Y-134435319D01*
X231919981Y-134459118D01*
X231923581Y-134483386D01*
X231924785Y-134507890D01*
X231924785Y-135157892D01*
X231923581Y-135182396D01*
X231919981Y-135206664D01*
X231914020Y-135230463D01*
X231905755Y-135253562D01*
X231895265Y-135275741D01*
X231882653Y-135296784D01*
X231868038Y-135316490D01*
X231851562Y-135334668D01*
X231833384Y-135351144D01*
X231813678Y-135365759D01*
X231792635Y-135378371D01*
X231770456Y-135388861D01*
X231747357Y-135397126D01*
X231723558Y-135403087D01*
X231699290Y-135406687D01*
X231674786Y-135407891D01*
X230774784Y-135407891D01*
X230750280Y-135406687D01*
X230726012Y-135403087D01*
X230702213Y-135397126D01*
X230679114Y-135388861D01*
X230656935Y-135378371D01*
X230635892Y-135365759D01*
X230616186Y-135351144D01*
X230598008Y-135334668D01*
X230581532Y-135316490D01*
X230566917Y-135296784D01*
X230554305Y-135275741D01*
X230543815Y-135253562D01*
X230535550Y-135230463D01*
X230529589Y-135206664D01*
X230525989Y-135182396D01*
X230524785Y-135157892D01*
X230524785Y-134507890D01*
X230525989Y-134483386D01*
X230529589Y-134459118D01*
X230535550Y-134435319D01*
X230543815Y-134412220D01*
X230554305Y-134390041D01*
X230566917Y-134368998D01*
X230581532Y-134349292D01*
X230598008Y-134331114D01*
X230616186Y-134314638D01*
X230635892Y-134300023D01*
X230656935Y-134287411D01*
X230679114Y-134276921D01*
X230702213Y-134268656D01*
X230726012Y-134262695D01*
X230750280Y-134259095D01*
X230774784Y-134257891D01*
X231674786Y-134257891D01*
X231699290Y-134259095D01*
X231699290Y-134259095D01*
G37*
D11*
X231224785Y-134832891D03*
G04 #@! TD*
D10*
G04 #@! TO.C,R2*
G36*
X234940330Y-134252855D02*
X234964598Y-134256455D01*
X234988397Y-134262416D01*
X235011496Y-134270681D01*
X235033675Y-134281171D01*
X235054718Y-134293783D01*
X235074424Y-134308398D01*
X235092602Y-134324874D01*
X235109078Y-134343052D01*
X235123693Y-134362758D01*
X235136305Y-134383801D01*
X235146795Y-134405980D01*
X235155060Y-134429079D01*
X235161021Y-134452878D01*
X235164621Y-134477146D01*
X235165825Y-134501650D01*
X235165825Y-135151652D01*
X235164621Y-135176156D01*
X235161021Y-135200424D01*
X235155060Y-135224223D01*
X235146795Y-135247322D01*
X235136305Y-135269501D01*
X235123693Y-135290544D01*
X235109078Y-135310250D01*
X235092602Y-135328428D01*
X235074424Y-135344904D01*
X235054718Y-135359519D01*
X235033675Y-135372131D01*
X235011496Y-135382621D01*
X234988397Y-135390886D01*
X234964598Y-135396847D01*
X234940330Y-135400447D01*
X234915826Y-135401651D01*
X234015824Y-135401651D01*
X233991320Y-135400447D01*
X233967052Y-135396847D01*
X233943253Y-135390886D01*
X233920154Y-135382621D01*
X233897975Y-135372131D01*
X233876932Y-135359519D01*
X233857226Y-135344904D01*
X233839048Y-135328428D01*
X233822572Y-135310250D01*
X233807957Y-135290544D01*
X233795345Y-135269501D01*
X233784855Y-135247322D01*
X233776590Y-135224223D01*
X233770629Y-135200424D01*
X233767029Y-135176156D01*
X233765825Y-135151652D01*
X233765825Y-134501650D01*
X233767029Y-134477146D01*
X233770629Y-134452878D01*
X233776590Y-134429079D01*
X233784855Y-134405980D01*
X233795345Y-134383801D01*
X233807957Y-134362758D01*
X233822572Y-134343052D01*
X233839048Y-134324874D01*
X233857226Y-134308398D01*
X233876932Y-134293783D01*
X233897975Y-134281171D01*
X233920154Y-134270681D01*
X233943253Y-134262416D01*
X233967052Y-134256455D01*
X233991320Y-134252855D01*
X234015824Y-134251651D01*
X234915826Y-134251651D01*
X234940330Y-134252855D01*
X234940330Y-134252855D01*
G37*
D11*
X234465825Y-134826651D03*
D10*
G36*
X234940330Y-136302855D02*
X234964598Y-136306455D01*
X234988397Y-136312416D01*
X235011496Y-136320681D01*
X235033675Y-136331171D01*
X235054718Y-136343783D01*
X235074424Y-136358398D01*
X235092602Y-136374874D01*
X235109078Y-136393052D01*
X235123693Y-136412758D01*
X235136305Y-136433801D01*
X235146795Y-136455980D01*
X235155060Y-136479079D01*
X235161021Y-136502878D01*
X235164621Y-136527146D01*
X235165825Y-136551650D01*
X235165825Y-137201652D01*
X235164621Y-137226156D01*
X235161021Y-137250424D01*
X235155060Y-137274223D01*
X235146795Y-137297322D01*
X235136305Y-137319501D01*
X235123693Y-137340544D01*
X235109078Y-137360250D01*
X235092602Y-137378428D01*
X235074424Y-137394904D01*
X235054718Y-137409519D01*
X235033675Y-137422131D01*
X235011496Y-137432621D01*
X234988397Y-137440886D01*
X234964598Y-137446847D01*
X234940330Y-137450447D01*
X234915826Y-137451651D01*
X234015824Y-137451651D01*
X233991320Y-137450447D01*
X233967052Y-137446847D01*
X233943253Y-137440886D01*
X233920154Y-137432621D01*
X233897975Y-137422131D01*
X233876932Y-137409519D01*
X233857226Y-137394904D01*
X233839048Y-137378428D01*
X233822572Y-137360250D01*
X233807957Y-137340544D01*
X233795345Y-137319501D01*
X233784855Y-137297322D01*
X233776590Y-137274223D01*
X233770629Y-137250424D01*
X233767029Y-137226156D01*
X233765825Y-137201652D01*
X233765825Y-136551650D01*
X233767029Y-136527146D01*
X233770629Y-136502878D01*
X233776590Y-136479079D01*
X233784855Y-136455980D01*
X233795345Y-136433801D01*
X233807957Y-136412758D01*
X233822572Y-136393052D01*
X233839048Y-136374874D01*
X233857226Y-136358398D01*
X233876932Y-136343783D01*
X233897975Y-136331171D01*
X233920154Y-136320681D01*
X233943253Y-136312416D01*
X233967052Y-136306455D01*
X233991320Y-136302855D01*
X234015824Y-136301651D01*
X234915826Y-136301651D01*
X234940330Y-136302855D01*
X234940330Y-136302855D01*
G37*
D11*
X234465825Y-136876651D03*
G04 #@! TD*
D10*
G04 #@! TO.C,R1*
G36*
X250004505Y-112485604D02*
X250028773Y-112489204D01*
X250052572Y-112495165D01*
X250075671Y-112503430D01*
X250097850Y-112513920D01*
X250118893Y-112526532D01*
X250138599Y-112541147D01*
X250156777Y-112557623D01*
X250173253Y-112575801D01*
X250187868Y-112595507D01*
X250200480Y-112616550D01*
X250210970Y-112638729D01*
X250219235Y-112661828D01*
X250225196Y-112685627D01*
X250228796Y-112709895D01*
X250230000Y-112734399D01*
X250230000Y-113384401D01*
X250228796Y-113408905D01*
X250225196Y-113433173D01*
X250219235Y-113456972D01*
X250210970Y-113480071D01*
X250200480Y-113502250D01*
X250187868Y-113523293D01*
X250173253Y-113542999D01*
X250156777Y-113561177D01*
X250138599Y-113577653D01*
X250118893Y-113592268D01*
X250097850Y-113604880D01*
X250075671Y-113615370D01*
X250052572Y-113623635D01*
X250028773Y-113629596D01*
X250004505Y-113633196D01*
X249980001Y-113634400D01*
X249079999Y-113634400D01*
X249055495Y-113633196D01*
X249031227Y-113629596D01*
X249007428Y-113623635D01*
X248984329Y-113615370D01*
X248962150Y-113604880D01*
X248941107Y-113592268D01*
X248921401Y-113577653D01*
X248903223Y-113561177D01*
X248886747Y-113542999D01*
X248872132Y-113523293D01*
X248859520Y-113502250D01*
X248849030Y-113480071D01*
X248840765Y-113456972D01*
X248834804Y-113433173D01*
X248831204Y-113408905D01*
X248830000Y-113384401D01*
X248830000Y-112734399D01*
X248831204Y-112709895D01*
X248834804Y-112685627D01*
X248840765Y-112661828D01*
X248849030Y-112638729D01*
X248859520Y-112616550D01*
X248872132Y-112595507D01*
X248886747Y-112575801D01*
X248903223Y-112557623D01*
X248921401Y-112541147D01*
X248941107Y-112526532D01*
X248962150Y-112513920D01*
X248984329Y-112503430D01*
X249007428Y-112495165D01*
X249031227Y-112489204D01*
X249055495Y-112485604D01*
X249079999Y-112484400D01*
X249980001Y-112484400D01*
X250004505Y-112485604D01*
X250004505Y-112485604D01*
G37*
D11*
X249530000Y-113059400D03*
D10*
G36*
X250004505Y-114535604D02*
X250028773Y-114539204D01*
X250052572Y-114545165D01*
X250075671Y-114553430D01*
X250097850Y-114563920D01*
X250118893Y-114576532D01*
X250138599Y-114591147D01*
X250156777Y-114607623D01*
X250173253Y-114625801D01*
X250187868Y-114645507D01*
X250200480Y-114666550D01*
X250210970Y-114688729D01*
X250219235Y-114711828D01*
X250225196Y-114735627D01*
X250228796Y-114759895D01*
X250230000Y-114784399D01*
X250230000Y-115434401D01*
X250228796Y-115458905D01*
X250225196Y-115483173D01*
X250219235Y-115506972D01*
X250210970Y-115530071D01*
X250200480Y-115552250D01*
X250187868Y-115573293D01*
X250173253Y-115592999D01*
X250156777Y-115611177D01*
X250138599Y-115627653D01*
X250118893Y-115642268D01*
X250097850Y-115654880D01*
X250075671Y-115665370D01*
X250052572Y-115673635D01*
X250028773Y-115679596D01*
X250004505Y-115683196D01*
X249980001Y-115684400D01*
X249079999Y-115684400D01*
X249055495Y-115683196D01*
X249031227Y-115679596D01*
X249007428Y-115673635D01*
X248984329Y-115665370D01*
X248962150Y-115654880D01*
X248941107Y-115642268D01*
X248921401Y-115627653D01*
X248903223Y-115611177D01*
X248886747Y-115592999D01*
X248872132Y-115573293D01*
X248859520Y-115552250D01*
X248849030Y-115530071D01*
X248840765Y-115506972D01*
X248834804Y-115483173D01*
X248831204Y-115458905D01*
X248830000Y-115434401D01*
X248830000Y-114784399D01*
X248831204Y-114759895D01*
X248834804Y-114735627D01*
X248840765Y-114711828D01*
X248849030Y-114688729D01*
X248859520Y-114666550D01*
X248872132Y-114645507D01*
X248886747Y-114625801D01*
X248903223Y-114607623D01*
X248921401Y-114591147D01*
X248941107Y-114576532D01*
X248962150Y-114563920D01*
X248984329Y-114553430D01*
X249007428Y-114545165D01*
X249031227Y-114539204D01*
X249055495Y-114535604D01*
X249079999Y-114534400D01*
X249980001Y-114534400D01*
X250004505Y-114535604D01*
X250004505Y-114535604D01*
G37*
D11*
X249530000Y-115109400D03*
G04 #@! TD*
M02*
