G04 #@! TF.GenerationSoftware,KiCad,Pcbnew,(5.0.0-3-g5ebb6b6)*
G04 #@! TF.CreationDate,2018-10-04T16:31:17-06:00*
G04 #@! TF.ProjectId,Hallow,48616C6C6F772E6B696361645F706362,rev?*
G04 #@! TF.SameCoordinates,Original*
G04 #@! TF.FileFunction,Drawing*
%FSLAX46Y46*%
G04 Gerber Fmt 4.6, Leading zero omitted, Abs format (unit mm)*
G04 Created by KiCad (PCBNEW (5.0.0-3-g5ebb6b6)) date Thursday, October 04, 2018 at 04:31:17 PM*
%MOMM*%
%LPD*%
G01*
G04 APERTURE LIST*
%ADD10C,0.150000*%
%ADD11C,0.100000*%
%ADD12C,0.120000*%
G04 APERTURE END LIST*
D10*
X274152380Y-140744761D02*
X273485714Y-139792380D01*
X273009523Y-140744761D02*
X273009523Y-138744761D01*
X273771428Y-138744761D01*
X273961904Y-138840000D01*
X274057142Y-138935238D01*
X274152380Y-139125714D01*
X274152380Y-139411428D01*
X274057142Y-139601904D01*
X273961904Y-139697142D01*
X273771428Y-139792380D01*
X273009523Y-139792380D01*
X275580952Y-138744761D02*
X275580952Y-140173333D01*
X275485714Y-140459047D01*
X275295238Y-140649523D01*
X275009523Y-140744761D01*
X274819047Y-140744761D01*
X277390476Y-139411428D02*
X277390476Y-140744761D01*
X276914285Y-138649523D02*
X276438095Y-140078095D01*
X277676190Y-140078095D01*
X279390476Y-138744761D02*
X278438095Y-138744761D01*
X278342857Y-139697142D01*
X278438095Y-139601904D01*
X278628571Y-139506666D01*
X279104761Y-139506666D01*
X279295238Y-139601904D01*
X279390476Y-139697142D01*
X279485714Y-139887619D01*
X279485714Y-140363809D01*
X279390476Y-140554285D01*
X279295238Y-140649523D01*
X279104761Y-140744761D01*
X278628571Y-140744761D01*
X278438095Y-140649523D01*
X278342857Y-140554285D01*
X275200190Y-120456761D02*
X275200190Y-122075809D01*
X275295428Y-122266285D01*
X275390666Y-122361523D01*
X275581142Y-122456761D01*
X275962095Y-122456761D01*
X276152571Y-122361523D01*
X276247809Y-122266285D01*
X276343047Y-122075809D01*
X276343047Y-120456761D01*
X277200190Y-122361523D02*
X277485904Y-122456761D01*
X277962095Y-122456761D01*
X278152571Y-122361523D01*
X278247809Y-122266285D01*
X278343047Y-122075809D01*
X278343047Y-121885333D01*
X278247809Y-121694857D01*
X278152571Y-121599619D01*
X277962095Y-121504380D01*
X277581142Y-121409142D01*
X277390666Y-121313904D01*
X277295428Y-121218666D01*
X277200190Y-121028190D01*
X277200190Y-120837714D01*
X277295428Y-120647238D01*
X277390666Y-120552000D01*
X277581142Y-120456761D01*
X278057333Y-120456761D01*
X278343047Y-120552000D01*
X279866857Y-121409142D02*
X280152571Y-121504380D01*
X280247809Y-121599619D01*
X280343047Y-121790095D01*
X280343047Y-122075809D01*
X280247809Y-122266285D01*
X280152571Y-122361523D01*
X279962095Y-122456761D01*
X279200190Y-122456761D01*
X279200190Y-120456761D01*
X279866857Y-120456761D01*
X280057333Y-120552000D01*
X280152571Y-120647238D01*
X280247809Y-120837714D01*
X280247809Y-121028190D01*
X280152571Y-121218666D01*
X280057333Y-121313904D01*
X279866857Y-121409142D01*
X279200190Y-121409142D01*
X275708190Y-101152761D02*
X275708190Y-102771809D01*
X275803428Y-102962285D01*
X275898666Y-103057523D01*
X276089142Y-103152761D01*
X276470095Y-103152761D01*
X276660571Y-103057523D01*
X276755809Y-102962285D01*
X276851047Y-102771809D01*
X276851047Y-101152761D01*
X277708190Y-103057523D02*
X277993904Y-103152761D01*
X278470095Y-103152761D01*
X278660571Y-103057523D01*
X278755809Y-102962285D01*
X278851047Y-102771809D01*
X278851047Y-102581333D01*
X278755809Y-102390857D01*
X278660571Y-102295619D01*
X278470095Y-102200380D01*
X278089142Y-102105142D01*
X277898666Y-102009904D01*
X277803428Y-101914666D01*
X277708190Y-101724190D01*
X277708190Y-101533714D01*
X277803428Y-101343238D01*
X277898666Y-101248000D01*
X278089142Y-101152761D01*
X278565333Y-101152761D01*
X278851047Y-101248000D01*
X280374857Y-102105142D02*
X280660571Y-102200380D01*
X280755809Y-102295619D01*
X280851047Y-102486095D01*
X280851047Y-102771809D01*
X280755809Y-102962285D01*
X280660571Y-103057523D01*
X280470095Y-103152761D01*
X279708190Y-103152761D01*
X279708190Y-101152761D01*
X280374857Y-101152761D01*
X280565333Y-101248000D01*
X280660571Y-101343238D01*
X280755809Y-101533714D01*
X280755809Y-101724190D01*
X280660571Y-101914666D01*
X280565333Y-102009904D01*
X280374857Y-102105142D01*
X279708190Y-102105142D01*
D11*
X269900000Y-114450000D02*
X287000000Y-114450000D01*
X269900000Y-127550000D02*
X269900000Y-114450000D01*
X287000000Y-127550000D02*
X269900000Y-127550000D01*
X287000000Y-114450000D02*
X287000000Y-127550000D01*
X266000000Y-147675000D02*
X266000000Y-131825000D01*
X287000000Y-147675000D02*
X266000000Y-147675000D01*
X287000000Y-131825000D02*
X287000000Y-147675000D01*
X266000000Y-131825000D02*
X287000000Y-131825000D01*
X269900000Y-109455925D02*
X269900000Y-96355925D01*
X287000000Y-109455925D02*
X269900000Y-109455925D01*
X287000000Y-96355925D02*
X287000000Y-109455925D01*
X269900000Y-96355925D02*
X287000000Y-96355925D01*
D12*
X201454190Y-154824761D02*
X200887523Y-153872380D01*
X200482761Y-154824761D02*
X200482761Y-152824761D01*
X201130380Y-152824761D01*
X201292285Y-152920000D01*
X201373238Y-153015238D01*
X201454190Y-153205714D01*
X201454190Y-153491428D01*
X201373238Y-153681904D01*
X201292285Y-153777142D01*
X201130380Y-153872380D01*
X200482761Y-153872380D01*
X202101809Y-154253333D02*
X202911333Y-154253333D01*
X201939904Y-154824761D02*
X202506571Y-152824761D01*
X203073238Y-154824761D01*
X203558952Y-154729523D02*
X203801809Y-154824761D01*
X204206571Y-154824761D01*
X204368476Y-154729523D01*
X204449428Y-154634285D01*
X204530380Y-154443809D01*
X204530380Y-154253333D01*
X204449428Y-154062857D01*
X204368476Y-153967619D01*
X204206571Y-153872380D01*
X203882761Y-153777142D01*
X203720857Y-153681904D01*
X203639904Y-153586666D01*
X203558952Y-153396190D01*
X203558952Y-153205714D01*
X203639904Y-153015238D01*
X203720857Y-152920000D01*
X203882761Y-152824761D01*
X204287523Y-152824761D01*
X204530380Y-152920000D01*
X205258952Y-154824761D02*
X205258952Y-152824761D01*
X205906571Y-152824761D01*
X206068476Y-152920000D01*
X206149428Y-153015238D01*
X206230380Y-153205714D01*
X206230380Y-153491428D01*
X206149428Y-153681904D01*
X206068476Y-153777142D01*
X205906571Y-153872380D01*
X205258952Y-153872380D01*
X207525619Y-153777142D02*
X207768476Y-153872380D01*
X207849428Y-153967619D01*
X207930380Y-154158095D01*
X207930380Y-154443809D01*
X207849428Y-154634285D01*
X207768476Y-154729523D01*
X207606571Y-154824761D01*
X206958952Y-154824761D01*
X206958952Y-152824761D01*
X207525619Y-152824761D01*
X207687523Y-152920000D01*
X207768476Y-153015238D01*
X207849428Y-153205714D01*
X207849428Y-153396190D01*
X207768476Y-153586666D01*
X207687523Y-153681904D01*
X207525619Y-153777142D01*
X206958952Y-153777142D01*
X208658952Y-153777142D02*
X209225619Y-153777142D01*
X209468476Y-154824761D02*
X208658952Y-154824761D01*
X208658952Y-152824761D01*
X209468476Y-152824761D01*
X211168476Y-154824761D02*
X210601809Y-153872380D01*
X210197047Y-154824761D02*
X210197047Y-152824761D01*
X210844666Y-152824761D01*
X211006571Y-152920000D01*
X211087523Y-153015238D01*
X211168476Y-153205714D01*
X211168476Y-153491428D01*
X211087523Y-153681904D01*
X211006571Y-153777142D01*
X210844666Y-153872380D01*
X210197047Y-153872380D01*
X212868476Y-154824761D02*
X212301809Y-153872380D01*
X211897047Y-154824761D02*
X211897047Y-152824761D01*
X212544666Y-152824761D01*
X212706571Y-152920000D01*
X212787523Y-153015238D01*
X212868476Y-153205714D01*
X212868476Y-153491428D01*
X212787523Y-153681904D01*
X212706571Y-153777142D01*
X212544666Y-153872380D01*
X211897047Y-153872380D01*
X213920857Y-153872380D02*
X213920857Y-154824761D01*
X213354190Y-152824761D02*
X213920857Y-153872380D01*
X214487523Y-152824761D01*
X215054190Y-154062857D02*
X216349428Y-154062857D01*
X217158952Y-154824761D02*
X217158952Y-152824761D01*
X217806571Y-152824761D01*
X217968476Y-152920000D01*
X218049428Y-153015238D01*
X218130380Y-153205714D01*
X218130380Y-153491428D01*
X218049428Y-153681904D01*
X217968476Y-153777142D01*
X217806571Y-153872380D01*
X217158952Y-153872380D01*
X218858952Y-154824761D02*
X218858952Y-152824761D01*
X221692285Y-153491428D02*
X221692285Y-154824761D01*
X221287523Y-152729523D02*
X220882761Y-154158095D01*
X221935142Y-154158095D01*
X222906571Y-152824761D02*
X223068476Y-152824761D01*
X223230380Y-152920000D01*
X223311333Y-153015238D01*
X223392285Y-153205714D01*
X223473238Y-153586666D01*
X223473238Y-154062857D01*
X223392285Y-154443809D01*
X223311333Y-154634285D01*
X223230380Y-154729523D01*
X223068476Y-154824761D01*
X222906571Y-154824761D01*
X222744666Y-154729523D01*
X222663714Y-154634285D01*
X222582761Y-154443809D01*
X222501809Y-154062857D01*
X222501809Y-153586666D01*
X222582761Y-153205714D01*
X222663714Y-153015238D01*
X222744666Y-152920000D01*
X222906571Y-152824761D01*
X224201809Y-154062857D02*
X225497047Y-154062857D01*
X226306571Y-154824761D02*
X226306571Y-152824761D01*
X226954190Y-152824761D01*
X227116095Y-152920000D01*
X227197047Y-153015238D01*
X227278000Y-153205714D01*
X227278000Y-153491428D01*
X227197047Y-153681904D01*
X227116095Y-153777142D01*
X226954190Y-153872380D01*
X226306571Y-153872380D01*
X228006571Y-154824761D02*
X228006571Y-152824761D01*
X228816095Y-154824761D02*
X228816095Y-152824761D01*
X229787523Y-154824761D01*
X229787523Y-152824761D01*
X231811333Y-154253333D02*
X232620857Y-154253333D01*
X231649428Y-154824761D02*
X232216095Y-152824761D01*
X232782761Y-154824761D01*
X233349428Y-154824761D02*
X233349428Y-152824761D01*
X233754190Y-152824761D01*
X233997047Y-152920000D01*
X234158952Y-153110476D01*
X234239904Y-153300952D01*
X234320857Y-153681904D01*
X234320857Y-153967619D01*
X234239904Y-154348571D01*
X234158952Y-154539047D01*
X233997047Y-154729523D01*
X233754190Y-154824761D01*
X233349428Y-154824761D01*
X235049428Y-154824761D02*
X235049428Y-152824761D01*
X235454190Y-152824761D01*
X235697047Y-152920000D01*
X235858952Y-153110476D01*
X235939904Y-153300952D01*
X236020857Y-153681904D01*
X236020857Y-153967619D01*
X235939904Y-154348571D01*
X235858952Y-154539047D01*
X235697047Y-154729523D01*
X235454190Y-154824761D01*
X235049428Y-154824761D01*
X237073238Y-152824761D02*
X237397047Y-152824761D01*
X237558952Y-152920000D01*
X237720857Y-153110476D01*
X237801809Y-153491428D01*
X237801809Y-154158095D01*
X237720857Y-154539047D01*
X237558952Y-154729523D01*
X237397047Y-154824761D01*
X237073238Y-154824761D01*
X236911333Y-154729523D01*
X236749428Y-154539047D01*
X236668476Y-154158095D01*
X236668476Y-153491428D01*
X236749428Y-153110476D01*
X236911333Y-152920000D01*
X237073238Y-152824761D01*
X238530380Y-154824761D02*
X238530380Y-152824761D01*
X239501809Y-154824761D01*
X239501809Y-152824761D01*
X242173238Y-153777142D02*
X242416095Y-153872380D01*
X242497047Y-153967619D01*
X242578000Y-154158095D01*
X242578000Y-154443809D01*
X242497047Y-154634285D01*
X242416095Y-154729523D01*
X242254190Y-154824761D01*
X241606571Y-154824761D01*
X241606571Y-152824761D01*
X242173238Y-152824761D01*
X242335142Y-152920000D01*
X242416095Y-153015238D01*
X242497047Y-153205714D01*
X242497047Y-153396190D01*
X242416095Y-153586666D01*
X242335142Y-153681904D01*
X242173238Y-153777142D01*
X241606571Y-153777142D01*
X243630380Y-152824761D02*
X243954190Y-152824761D01*
X244116095Y-152920000D01*
X244278000Y-153110476D01*
X244358952Y-153491428D01*
X244358952Y-154158095D01*
X244278000Y-154539047D01*
X244116095Y-154729523D01*
X243954190Y-154824761D01*
X243630380Y-154824761D01*
X243468476Y-154729523D01*
X243306571Y-154539047D01*
X243225619Y-154158095D01*
X243225619Y-153491428D01*
X243306571Y-153110476D01*
X243468476Y-152920000D01*
X243630380Y-152824761D01*
X245006571Y-154253333D02*
X245816095Y-154253333D01*
X244844666Y-154824761D02*
X245411333Y-152824761D01*
X245978000Y-154824761D01*
X247516095Y-154824761D02*
X246949428Y-153872380D01*
X246544666Y-154824761D02*
X246544666Y-152824761D01*
X247192285Y-152824761D01*
X247354190Y-152920000D01*
X247435142Y-153015238D01*
X247516095Y-153205714D01*
X247516095Y-153491428D01*
X247435142Y-153681904D01*
X247354190Y-153777142D01*
X247192285Y-153872380D01*
X246544666Y-153872380D01*
X248244666Y-154824761D02*
X248244666Y-152824761D01*
X248649428Y-152824761D01*
X248892285Y-152920000D01*
X249054190Y-153110476D01*
X249135142Y-153300952D01*
X249216095Y-153681904D01*
X249216095Y-153967619D01*
X249135142Y-154348571D01*
X249054190Y-154539047D01*
X248892285Y-154729523D01*
X248649428Y-154824761D01*
X248244666Y-154824761D01*
X200239904Y-155944761D02*
X200806571Y-157944761D01*
X201373238Y-155944761D01*
X201939904Y-157944761D02*
X201939904Y-155944761D01*
X202749428Y-156897142D02*
X203316095Y-156897142D01*
X203558952Y-157944761D02*
X202749428Y-157944761D01*
X202749428Y-155944761D01*
X203558952Y-155944761D01*
X204125619Y-155944761D02*
X204530380Y-157944761D01*
X204854190Y-156516190D01*
X205178000Y-157944761D01*
X205582761Y-155944761D01*
X208092285Y-156897142D02*
X207525619Y-156897142D01*
X207525619Y-157944761D02*
X207525619Y-155944761D01*
X208335142Y-155944761D01*
X209954190Y-157944761D02*
X209387523Y-156992380D01*
X208982761Y-157944761D02*
X208982761Y-155944761D01*
X209630380Y-155944761D01*
X209792285Y-156040000D01*
X209873238Y-156135238D01*
X209954190Y-156325714D01*
X209954190Y-156611428D01*
X209873238Y-156801904D01*
X209792285Y-156897142D01*
X209630380Y-156992380D01*
X208982761Y-156992380D01*
X211006571Y-155944761D02*
X211330380Y-155944761D01*
X211492285Y-156040000D01*
X211654190Y-156230476D01*
X211735142Y-156611428D01*
X211735142Y-157278095D01*
X211654190Y-157659047D01*
X211492285Y-157849523D01*
X211330380Y-157944761D01*
X211006571Y-157944761D01*
X210844666Y-157849523D01*
X210682761Y-157659047D01*
X210601809Y-157278095D01*
X210601809Y-156611428D01*
X210682761Y-156230476D01*
X210844666Y-156040000D01*
X211006571Y-155944761D01*
X212463714Y-157944761D02*
X212463714Y-155944761D01*
X213030380Y-157373333D01*
X213597047Y-155944761D01*
X213597047Y-157944761D01*
X215458952Y-155944761D02*
X216430380Y-155944761D01*
X215944666Y-157944761D02*
X215944666Y-155944761D01*
X217320857Y-155944761D02*
X217644666Y-155944761D01*
X217806571Y-156040000D01*
X217968476Y-156230476D01*
X218049428Y-156611428D01*
X218049428Y-157278095D01*
X217968476Y-157659047D01*
X217806571Y-157849523D01*
X217644666Y-157944761D01*
X217320857Y-157944761D01*
X217158952Y-157849523D01*
X216997047Y-157659047D01*
X216916095Y-157278095D01*
X216916095Y-156611428D01*
X216997047Y-156230476D01*
X217158952Y-156040000D01*
X217320857Y-155944761D01*
X218778000Y-157944761D02*
X218778000Y-155944761D01*
X219425619Y-155944761D01*
X219587523Y-156040000D01*
X219668476Y-156135238D01*
X219749428Y-156325714D01*
X219749428Y-156611428D01*
X219668476Y-156801904D01*
X219587523Y-156897142D01*
X219425619Y-156992380D01*
X218778000Y-156992380D01*
X200482761Y-161064761D02*
X200482761Y-159064761D01*
X201454190Y-161064761D01*
X201454190Y-159064761D01*
X202587523Y-159064761D02*
X202911333Y-159064761D01*
X203073238Y-159160000D01*
X203235142Y-159350476D01*
X203316095Y-159731428D01*
X203316095Y-160398095D01*
X203235142Y-160779047D01*
X203073238Y-160969523D01*
X202911333Y-161064761D01*
X202587523Y-161064761D01*
X202425619Y-160969523D01*
X202263714Y-160779047D01*
X202182761Y-160398095D01*
X202182761Y-159731428D01*
X202263714Y-159350476D01*
X202425619Y-159160000D01*
X202587523Y-159064761D01*
X203801809Y-159064761D02*
X204773238Y-159064761D01*
X204287523Y-161064761D02*
X204287523Y-159064761D01*
X205339904Y-160017142D02*
X205906571Y-160017142D01*
X206149428Y-161064761D02*
X205339904Y-161064761D01*
X205339904Y-159064761D01*
X206149428Y-159064761D01*
X206878000Y-160874285D02*
X206958952Y-160969523D01*
X206878000Y-161064761D01*
X206797047Y-160969523D01*
X206878000Y-160874285D01*
X206878000Y-161064761D01*
X206878000Y-159826666D02*
X206958952Y-159921904D01*
X206878000Y-160017142D01*
X206797047Y-159921904D01*
X206878000Y-159826666D01*
X206878000Y-160017142D01*
X208982761Y-161064761D02*
X208982761Y-159064761D01*
X209630380Y-159064761D01*
X209792285Y-159160000D01*
X209873238Y-159255238D01*
X209954190Y-159445714D01*
X209954190Y-159731428D01*
X209873238Y-159921904D01*
X209792285Y-160017142D01*
X209630380Y-160112380D01*
X208982761Y-160112380D01*
X211573238Y-161064761D02*
X210601809Y-161064761D01*
X211087523Y-161064761D02*
X211087523Y-159064761D01*
X210925619Y-159350476D01*
X210763714Y-159540952D01*
X210601809Y-159636190D01*
X213516095Y-160969523D02*
X213758952Y-161064761D01*
X214163714Y-161064761D01*
X214325619Y-160969523D01*
X214406571Y-160874285D01*
X214487523Y-160683809D01*
X214487523Y-160493333D01*
X214406571Y-160302857D01*
X214325619Y-160207619D01*
X214163714Y-160112380D01*
X213839904Y-160017142D01*
X213678000Y-159921904D01*
X213597047Y-159826666D01*
X213516095Y-159636190D01*
X213516095Y-159445714D01*
X213597047Y-159255238D01*
X213678000Y-159160000D01*
X213839904Y-159064761D01*
X214244666Y-159064761D01*
X214487523Y-159160000D01*
X215216095Y-161064761D02*
X215216095Y-159064761D01*
X215216095Y-160017142D02*
X216187523Y-160017142D01*
X216187523Y-161064761D02*
X216187523Y-159064761D01*
X217320857Y-159064761D02*
X217644666Y-159064761D01*
X217806571Y-159160000D01*
X217968476Y-159350476D01*
X218049428Y-159731428D01*
X218049428Y-160398095D01*
X217968476Y-160779047D01*
X217806571Y-160969523D01*
X217644666Y-161064761D01*
X217320857Y-161064761D01*
X217158952Y-160969523D01*
X216997047Y-160779047D01*
X216916095Y-160398095D01*
X216916095Y-159731428D01*
X216997047Y-159350476D01*
X217158952Y-159160000D01*
X217320857Y-159064761D01*
X218778000Y-159064761D02*
X218778000Y-160683809D01*
X218858952Y-160874285D01*
X218939904Y-160969523D01*
X219101809Y-161064761D01*
X219425619Y-161064761D01*
X219587523Y-160969523D01*
X219668476Y-160874285D01*
X219749428Y-160683809D01*
X219749428Y-159064761D01*
X221368476Y-161064761D02*
X220558952Y-161064761D01*
X220558952Y-159064761D01*
X221935142Y-161064761D02*
X221935142Y-159064761D01*
X222339904Y-159064761D01*
X222582761Y-159160000D01*
X222744666Y-159350476D01*
X222825619Y-159540952D01*
X222906571Y-159921904D01*
X222906571Y-160207619D01*
X222825619Y-160588571D01*
X222744666Y-160779047D01*
X222582761Y-160969523D01*
X222339904Y-161064761D01*
X221935142Y-161064761D01*
X225497047Y-160017142D02*
X225739904Y-160112380D01*
X225820857Y-160207619D01*
X225901809Y-160398095D01*
X225901809Y-160683809D01*
X225820857Y-160874285D01*
X225739904Y-160969523D01*
X225578000Y-161064761D01*
X224930380Y-161064761D01*
X224930380Y-159064761D01*
X225497047Y-159064761D01*
X225658952Y-159160000D01*
X225739904Y-159255238D01*
X225820857Y-159445714D01*
X225820857Y-159636190D01*
X225739904Y-159826666D01*
X225658952Y-159921904D01*
X225497047Y-160017142D01*
X224930380Y-160017142D01*
X226630380Y-160017142D02*
X227197047Y-160017142D01*
X227439904Y-161064761D02*
X226630380Y-161064761D01*
X226630380Y-159064761D01*
X227439904Y-159064761D01*
X230030380Y-160017142D02*
X229463714Y-160017142D01*
X229463714Y-161064761D02*
X229463714Y-159064761D01*
X230273238Y-159064761D01*
X230920857Y-161064761D02*
X230920857Y-159064761D01*
X231487523Y-159064761D02*
X232458952Y-159064761D01*
X231973238Y-161064761D02*
X231973238Y-159064761D01*
X232782761Y-159064761D02*
X233754190Y-159064761D01*
X233268476Y-161064761D02*
X233268476Y-159064761D01*
X234320857Y-160017142D02*
X234887523Y-160017142D01*
X235130380Y-161064761D02*
X234320857Y-161064761D01*
X234320857Y-159064761D01*
X235130380Y-159064761D01*
X235858952Y-161064761D02*
X235858952Y-159064761D01*
X236263714Y-159064761D01*
X236506571Y-159160000D01*
X236668476Y-159350476D01*
X236749428Y-159540952D01*
X236830380Y-159921904D01*
X236830380Y-160207619D01*
X236749428Y-160588571D01*
X236668476Y-160779047D01*
X236506571Y-160969523D01*
X236263714Y-161064761D01*
X235858952Y-161064761D01*
X239178000Y-159064761D02*
X239501809Y-159064761D01*
X239663714Y-159160000D01*
X239825619Y-159350476D01*
X239906571Y-159731428D01*
X239906571Y-160398095D01*
X239825619Y-160779047D01*
X239663714Y-160969523D01*
X239501809Y-161064761D01*
X239178000Y-161064761D01*
X239016095Y-160969523D01*
X238854190Y-160779047D01*
X238773238Y-160398095D01*
X238773238Y-159731428D01*
X238854190Y-159350476D01*
X239016095Y-159160000D01*
X239178000Y-159064761D01*
X240635142Y-161064761D02*
X240635142Y-159064761D01*
X241606571Y-161064761D01*
X241606571Y-159064761D01*
X243468476Y-159064761D02*
X244439904Y-159064761D01*
X243954190Y-161064761D02*
X243954190Y-159064761D01*
X245006571Y-161064761D02*
X245006571Y-159064761D01*
X245006571Y-160017142D02*
X245978000Y-160017142D01*
X245978000Y-161064761D02*
X245978000Y-159064761D01*
X246787523Y-160017142D02*
X247354190Y-160017142D01*
X247597047Y-161064761D02*
X246787523Y-161064761D01*
X246787523Y-159064761D01*
X247597047Y-159064761D01*
X250592285Y-161064761D02*
X250025619Y-160112380D01*
X249620857Y-161064761D02*
X249620857Y-159064761D01*
X250268476Y-159064761D01*
X250430380Y-159160000D01*
X250511333Y-159255238D01*
X250592285Y-159445714D01*
X250592285Y-159731428D01*
X250511333Y-159921904D01*
X250430380Y-160017142D01*
X250268476Y-160112380D01*
X249620857Y-160112380D01*
X251320857Y-160017142D02*
X251887523Y-160017142D01*
X252130380Y-161064761D02*
X251320857Y-161064761D01*
X251320857Y-159064761D01*
X252130380Y-159064761D01*
X252616095Y-159064761D02*
X253182761Y-161064761D01*
X253749428Y-159064761D01*
X254316095Y-160017142D02*
X254882761Y-160017142D01*
X255125619Y-161064761D02*
X254316095Y-161064761D01*
X254316095Y-159064761D01*
X255125619Y-159064761D01*
X256825619Y-161064761D02*
X256258952Y-160112380D01*
X255854190Y-161064761D02*
X255854190Y-159064761D01*
X256501809Y-159064761D01*
X256663714Y-159160000D01*
X256744666Y-159255238D01*
X256825619Y-159445714D01*
X256825619Y-159731428D01*
X256744666Y-159921904D01*
X256663714Y-160017142D01*
X256501809Y-160112380D01*
X255854190Y-160112380D01*
X257473238Y-160969523D02*
X257716095Y-161064761D01*
X258120857Y-161064761D01*
X258282761Y-160969523D01*
X258363714Y-160874285D01*
X258444666Y-160683809D01*
X258444666Y-160493333D01*
X258363714Y-160302857D01*
X258282761Y-160207619D01*
X258120857Y-160112380D01*
X257797047Y-160017142D01*
X257635142Y-159921904D01*
X257554190Y-159826666D01*
X257473238Y-159636190D01*
X257473238Y-159445714D01*
X257554190Y-159255238D01*
X257635142Y-159160000D01*
X257797047Y-159064761D01*
X258201809Y-159064761D01*
X258444666Y-159160000D01*
X259173238Y-160017142D02*
X259739904Y-160017142D01*
X259982761Y-161064761D02*
X259173238Y-161064761D01*
X259173238Y-159064761D01*
X259982761Y-159064761D01*
X262330380Y-159064761D02*
X262654190Y-159064761D01*
X262816095Y-159160000D01*
X262978000Y-159350476D01*
X263058952Y-159731428D01*
X263058952Y-160398095D01*
X262978000Y-160779047D01*
X262816095Y-160969523D01*
X262654190Y-161064761D01*
X262330380Y-161064761D01*
X262168476Y-160969523D01*
X262006571Y-160779047D01*
X261925619Y-160398095D01*
X261925619Y-159731428D01*
X262006571Y-159350476D01*
X262168476Y-159160000D01*
X262330380Y-159064761D01*
X264354190Y-160017142D02*
X263787523Y-160017142D01*
X263787523Y-161064761D02*
X263787523Y-159064761D01*
X264597047Y-159064761D01*
X266297047Y-159064761D02*
X267268476Y-159064761D01*
X266782761Y-161064761D02*
X266782761Y-159064761D01*
X267835142Y-161064761D02*
X267835142Y-159064761D01*
X267835142Y-160017142D02*
X268806571Y-160017142D01*
X268806571Y-161064761D02*
X268806571Y-159064761D01*
X269616095Y-160017142D02*
X270182761Y-160017142D01*
X270425619Y-161064761D02*
X269616095Y-161064761D01*
X269616095Y-159064761D01*
X270425619Y-159064761D01*
X273016095Y-160017142D02*
X273258952Y-160112380D01*
X273339904Y-160207619D01*
X273420857Y-160398095D01*
X273420857Y-160683809D01*
X273339904Y-160874285D01*
X273258952Y-160969523D01*
X273097047Y-161064761D01*
X272449428Y-161064761D01*
X272449428Y-159064761D01*
X273016095Y-159064761D01*
X273178000Y-159160000D01*
X273258952Y-159255238D01*
X273339904Y-159445714D01*
X273339904Y-159636190D01*
X273258952Y-159826666D01*
X273178000Y-159921904D01*
X273016095Y-160017142D01*
X272449428Y-160017142D01*
X274473238Y-159064761D02*
X274797047Y-159064761D01*
X274958952Y-159160000D01*
X275120857Y-159350476D01*
X275201809Y-159731428D01*
X275201809Y-160398095D01*
X275120857Y-160779047D01*
X274958952Y-160969523D01*
X274797047Y-161064761D01*
X274473238Y-161064761D01*
X274311333Y-160969523D01*
X274149428Y-160779047D01*
X274068476Y-160398095D01*
X274068476Y-159731428D01*
X274149428Y-159350476D01*
X274311333Y-159160000D01*
X274473238Y-159064761D01*
X275849428Y-160493333D02*
X276658952Y-160493333D01*
X275687523Y-161064761D02*
X276254190Y-159064761D01*
X276820857Y-161064761D01*
X278358952Y-161064761D02*
X277792285Y-160112380D01*
X277387523Y-161064761D02*
X277387523Y-159064761D01*
X278035142Y-159064761D01*
X278197047Y-159160000D01*
X278278000Y-159255238D01*
X278358952Y-159445714D01*
X278358952Y-159731428D01*
X278278000Y-159921904D01*
X278197047Y-160017142D01*
X278035142Y-160112380D01*
X277387523Y-160112380D01*
X279087523Y-161064761D02*
X279087523Y-159064761D01*
X279492285Y-159064761D01*
X279735142Y-159160000D01*
X279897047Y-159350476D01*
X279978000Y-159540952D01*
X280058952Y-159921904D01*
X280058952Y-160207619D01*
X279978000Y-160588571D01*
X279897047Y-160779047D01*
X279735142Y-160969523D01*
X279492285Y-161064761D01*
X279087523Y-161064761D01*
X200401809Y-166733333D02*
X201211333Y-166733333D01*
X200239904Y-167304761D02*
X200806571Y-165304761D01*
X201373238Y-167304761D01*
X201939904Y-167304761D02*
X201939904Y-165304761D01*
X202344666Y-165304761D01*
X202587523Y-165400000D01*
X202749428Y-165590476D01*
X202830380Y-165780952D01*
X202911333Y-166161904D01*
X202911333Y-166447619D01*
X202830380Y-166828571D01*
X202749428Y-167019047D01*
X202587523Y-167209523D01*
X202344666Y-167304761D01*
X201939904Y-167304761D01*
X203639904Y-167304761D02*
X203639904Y-165304761D01*
X204044666Y-165304761D01*
X204287523Y-165400000D01*
X204449428Y-165590476D01*
X204530380Y-165780952D01*
X204611333Y-166161904D01*
X204611333Y-166447619D01*
X204530380Y-166828571D01*
X204449428Y-167019047D01*
X204287523Y-167209523D01*
X204044666Y-167304761D01*
X203639904Y-167304761D01*
X206635142Y-166257142D02*
X207201809Y-166257142D01*
X207444666Y-167304761D02*
X206635142Y-167304761D01*
X206635142Y-165304761D01*
X207444666Y-165304761D01*
X208173238Y-167304761D02*
X208173238Y-165304761D01*
X208578000Y-165304761D01*
X208820857Y-165400000D01*
X208982761Y-165590476D01*
X209063714Y-165780952D01*
X209144666Y-166161904D01*
X209144666Y-166447619D01*
X209063714Y-166828571D01*
X208982761Y-167019047D01*
X208820857Y-167209523D01*
X208578000Y-167304761D01*
X208173238Y-167304761D01*
X210763714Y-165400000D02*
X210601809Y-165304761D01*
X210358952Y-165304761D01*
X210116095Y-165400000D01*
X209954190Y-165590476D01*
X209873238Y-165780952D01*
X209792285Y-166161904D01*
X209792285Y-166447619D01*
X209873238Y-166828571D01*
X209954190Y-167019047D01*
X210116095Y-167209523D01*
X210358952Y-167304761D01*
X210520857Y-167304761D01*
X210763714Y-167209523D01*
X210844666Y-167114285D01*
X210844666Y-166447619D01*
X210520857Y-166447619D01*
X211573238Y-166257142D02*
X212139904Y-166257142D01*
X212382761Y-167304761D02*
X211573238Y-167304761D01*
X211573238Y-165304761D01*
X212382761Y-165304761D01*
X215378000Y-167114285D02*
X215297047Y-167209523D01*
X215054190Y-167304761D01*
X214892285Y-167304761D01*
X214649428Y-167209523D01*
X214487523Y-167019047D01*
X214406571Y-166828571D01*
X214325619Y-166447619D01*
X214325619Y-166161904D01*
X214406571Y-165780952D01*
X214487523Y-165590476D01*
X214649428Y-165400000D01*
X214892285Y-165304761D01*
X215054190Y-165304761D01*
X215297047Y-165400000D01*
X215378000Y-165495238D01*
X216106571Y-165304761D02*
X216106571Y-166923809D01*
X216187523Y-167114285D01*
X216268476Y-167209523D01*
X216430380Y-167304761D01*
X216754190Y-167304761D01*
X216916095Y-167209523D01*
X216997047Y-167114285D01*
X217078000Y-166923809D01*
X217078000Y-165304761D01*
X217644666Y-165304761D02*
X218616095Y-165304761D01*
X218130380Y-167304761D02*
X218130380Y-165304761D01*
X219101809Y-167209523D02*
X219344666Y-167304761D01*
X219749428Y-167304761D01*
X219911333Y-167209523D01*
X219992285Y-167114285D01*
X220073238Y-166923809D01*
X220073238Y-166733333D01*
X219992285Y-166542857D01*
X219911333Y-166447619D01*
X219749428Y-166352380D01*
X219425619Y-166257142D01*
X219263714Y-166161904D01*
X219182761Y-166066666D01*
X219101809Y-165876190D01*
X219101809Y-165685714D01*
X219182761Y-165495238D01*
X219263714Y-165400000D01*
X219425619Y-165304761D01*
X219830380Y-165304761D01*
X220073238Y-165400000D01*
X222663714Y-166257142D02*
X222097047Y-166257142D01*
X222097047Y-167304761D02*
X222097047Y-165304761D01*
X222906571Y-165304761D01*
X224525619Y-167304761D02*
X223958952Y-166352380D01*
X223554190Y-167304761D02*
X223554190Y-165304761D01*
X224201809Y-165304761D01*
X224363714Y-165400000D01*
X224444666Y-165495238D01*
X224525619Y-165685714D01*
X224525619Y-165971428D01*
X224444666Y-166161904D01*
X224363714Y-166257142D01*
X224201809Y-166352380D01*
X223554190Y-166352380D01*
X225578000Y-165304761D02*
X225901809Y-165304761D01*
X226063714Y-165400000D01*
X226225619Y-165590476D01*
X226306571Y-165971428D01*
X226306571Y-166638095D01*
X226225619Y-167019047D01*
X226063714Y-167209523D01*
X225901809Y-167304761D01*
X225578000Y-167304761D01*
X225416095Y-167209523D01*
X225254190Y-167019047D01*
X225173238Y-166638095D01*
X225173238Y-165971428D01*
X225254190Y-165590476D01*
X225416095Y-165400000D01*
X225578000Y-165304761D01*
X227035142Y-167304761D02*
X227035142Y-165304761D01*
X227601809Y-166733333D01*
X228168476Y-165304761D01*
X228168476Y-167304761D01*
X231244666Y-167114285D02*
X231163714Y-167209523D01*
X230920857Y-167304761D01*
X230758952Y-167304761D01*
X230516095Y-167209523D01*
X230354190Y-167019047D01*
X230273238Y-166828571D01*
X230192285Y-166447619D01*
X230192285Y-166161904D01*
X230273238Y-165780952D01*
X230354190Y-165590476D01*
X230516095Y-165400000D01*
X230758952Y-165304761D01*
X230920857Y-165304761D01*
X231163714Y-165400000D01*
X231244666Y-165495238D01*
X231892285Y-166733333D02*
X232701809Y-166733333D01*
X231730380Y-167304761D02*
X232297047Y-165304761D01*
X232863714Y-167304761D01*
X233430380Y-167304761D02*
X233430380Y-165304761D01*
X233997047Y-166733333D01*
X234563714Y-165304761D01*
X234563714Y-167304761D01*
X235373238Y-166257142D02*
X235939904Y-166257142D01*
X236182761Y-167304761D02*
X235373238Y-167304761D01*
X235373238Y-165304761D01*
X236182761Y-165304761D01*
X237882761Y-167304761D02*
X237316095Y-166352380D01*
X236911333Y-167304761D02*
X236911333Y-165304761D01*
X237558952Y-165304761D01*
X237720857Y-165400000D01*
X237801809Y-165495238D01*
X237882761Y-165685714D01*
X237882761Y-165971428D01*
X237801809Y-166161904D01*
X237720857Y-166257142D01*
X237558952Y-166352380D01*
X236911333Y-166352380D01*
X238530380Y-166733333D02*
X239339904Y-166733333D01*
X238368476Y-167304761D02*
X238935142Y-165304761D01*
X239501809Y-167304761D01*
X241282761Y-166733333D02*
X242092285Y-166733333D01*
X241120857Y-167304761D02*
X241687523Y-165304761D01*
X242254190Y-167304761D01*
X242820857Y-167304761D02*
X242820857Y-165304761D01*
X243792285Y-167304761D01*
X243792285Y-165304761D01*
X244601809Y-167304761D02*
X244601809Y-165304761D01*
X245006571Y-165304761D01*
X245249428Y-165400000D01*
X245411333Y-165590476D01*
X245492285Y-165780952D01*
X245573238Y-166161904D01*
X245573238Y-166447619D01*
X245492285Y-166828571D01*
X245411333Y-167019047D01*
X245249428Y-167209523D01*
X245006571Y-167304761D01*
X244601809Y-167304761D01*
X247597047Y-167304761D02*
X247597047Y-165304761D01*
X248001809Y-165304761D01*
X248244666Y-165400000D01*
X248406571Y-165590476D01*
X248487523Y-165780952D01*
X248568476Y-166161904D01*
X248568476Y-166447619D01*
X248487523Y-166828571D01*
X248406571Y-167019047D01*
X248244666Y-167209523D01*
X248001809Y-167304761D01*
X247597047Y-167304761D01*
X249297047Y-167304761D02*
X249297047Y-165304761D01*
X250025619Y-167209523D02*
X250268476Y-167304761D01*
X250673238Y-167304761D01*
X250835142Y-167209523D01*
X250916095Y-167114285D01*
X250997047Y-166923809D01*
X250997047Y-166733333D01*
X250916095Y-166542857D01*
X250835142Y-166447619D01*
X250673238Y-166352380D01*
X250349428Y-166257142D01*
X250187523Y-166161904D01*
X250106571Y-166066666D01*
X250025619Y-165876190D01*
X250025619Y-165685714D01*
X250106571Y-165495238D01*
X250187523Y-165400000D01*
X250349428Y-165304761D01*
X250754190Y-165304761D01*
X250997047Y-165400000D01*
X251725619Y-167304761D02*
X251725619Y-165304761D01*
X252373238Y-165304761D01*
X252535142Y-165400000D01*
X252616095Y-165495238D01*
X252697047Y-165685714D01*
X252697047Y-165971428D01*
X252616095Y-166161904D01*
X252535142Y-166257142D01*
X252373238Y-166352380D01*
X251725619Y-166352380D01*
X254235142Y-167304761D02*
X253425619Y-167304761D01*
X253425619Y-165304761D01*
X254720857Y-166733333D02*
X255530380Y-166733333D01*
X254558952Y-167304761D02*
X255125619Y-165304761D01*
X255692285Y-167304761D01*
X256582761Y-166352380D02*
X256582761Y-167304761D01*
X256016095Y-165304761D02*
X256582761Y-166352380D01*
X257149428Y-165304761D01*
X259011333Y-167304761D02*
X259011333Y-165304761D01*
X259658952Y-165304761D01*
X259820857Y-165400000D01*
X259901809Y-165495238D01*
X259982761Y-165685714D01*
X259982761Y-165971428D01*
X259901809Y-166161904D01*
X259820857Y-166257142D01*
X259658952Y-166352380D01*
X259011333Y-166352380D01*
X261035142Y-165304761D02*
X261358952Y-165304761D01*
X261520857Y-165400000D01*
X261682761Y-165590476D01*
X261763714Y-165971428D01*
X261763714Y-166638095D01*
X261682761Y-167019047D01*
X261520857Y-167209523D01*
X261358952Y-167304761D01*
X261035142Y-167304761D01*
X260873238Y-167209523D01*
X260711333Y-167019047D01*
X260630380Y-166638095D01*
X260630380Y-165971428D01*
X260711333Y-165590476D01*
X260873238Y-165400000D01*
X261035142Y-165304761D01*
X263463714Y-167304761D02*
X262897047Y-166352380D01*
X262492285Y-167304761D02*
X262492285Y-165304761D01*
X263139904Y-165304761D01*
X263301809Y-165400000D01*
X263382761Y-165495238D01*
X263463714Y-165685714D01*
X263463714Y-165971428D01*
X263382761Y-166161904D01*
X263301809Y-166257142D01*
X263139904Y-166352380D01*
X262492285Y-166352380D01*
X263949428Y-165304761D02*
X264920857Y-165304761D01*
X264435142Y-167304761D02*
X264435142Y-165304761D01*
X265406571Y-167209523D02*
X265649428Y-167304761D01*
X266054190Y-167304761D01*
X266216095Y-167209523D01*
X266297047Y-167114285D01*
X266378000Y-166923809D01*
X266378000Y-166733333D01*
X266297047Y-166542857D01*
X266216095Y-166447619D01*
X266054190Y-166352380D01*
X265730380Y-166257142D01*
X265568476Y-166161904D01*
X265487523Y-166066666D01*
X265406571Y-165876190D01*
X265406571Y-165685714D01*
X265487523Y-165495238D01*
X265568476Y-165400000D01*
X265730380Y-165304761D01*
X266135142Y-165304761D01*
X266378000Y-165400000D01*
X268320857Y-166733333D02*
X269130380Y-166733333D01*
X268158952Y-167304761D02*
X268725619Y-165304761D01*
X269292285Y-167304761D01*
X269778000Y-167209523D02*
X270020857Y-167304761D01*
X270425619Y-167304761D01*
X270587523Y-167209523D01*
X270668476Y-167114285D01*
X270749428Y-166923809D01*
X270749428Y-166733333D01*
X270668476Y-166542857D01*
X270587523Y-166447619D01*
X270425619Y-166352380D01*
X270101809Y-166257142D01*
X269939904Y-166161904D01*
X269858952Y-166066666D01*
X269778000Y-165876190D01*
X269778000Y-165685714D01*
X269858952Y-165495238D01*
X269939904Y-165400000D01*
X270101809Y-165304761D01*
X270506571Y-165304761D01*
X270749428Y-165400000D01*
X273744666Y-167304761D02*
X273178000Y-166352380D01*
X272773238Y-167304761D02*
X272773238Y-165304761D01*
X273420857Y-165304761D01*
X273582761Y-165400000D01*
X273663714Y-165495238D01*
X273744666Y-165685714D01*
X273744666Y-165971428D01*
X273663714Y-166161904D01*
X273582761Y-166257142D01*
X273420857Y-166352380D01*
X272773238Y-166352380D01*
X274473238Y-166257142D02*
X275039904Y-166257142D01*
X275282761Y-167304761D02*
X274473238Y-167304761D01*
X274473238Y-165304761D01*
X275282761Y-165304761D01*
X277144666Y-167495238D02*
X276982761Y-167400000D01*
X276820857Y-167209523D01*
X276578000Y-166923809D01*
X276416095Y-166828571D01*
X276254190Y-166828571D01*
X276335142Y-167304761D02*
X276173238Y-167209523D01*
X276011333Y-167019047D01*
X275930380Y-166638095D01*
X275930380Y-165971428D01*
X276011333Y-165590476D01*
X276173238Y-165400000D01*
X276335142Y-165304761D01*
X276658952Y-165304761D01*
X276820857Y-165400000D01*
X276982761Y-165590476D01*
X277063714Y-165971428D01*
X277063714Y-166638095D01*
X276982761Y-167019047D01*
X276820857Y-167209523D01*
X276658952Y-167304761D01*
X276335142Y-167304761D01*
X277792285Y-165304761D02*
X277792285Y-166923809D01*
X277873238Y-167114285D01*
X277954190Y-167209523D01*
X278116095Y-167304761D01*
X278439904Y-167304761D01*
X278601809Y-167209523D01*
X278682761Y-167114285D01*
X278763714Y-166923809D01*
X278763714Y-165304761D01*
X279573238Y-167304761D02*
X279573238Y-165304761D01*
X281354190Y-167304761D02*
X280787523Y-166352380D01*
X280382761Y-167304761D02*
X280382761Y-165304761D01*
X281030380Y-165304761D01*
X281192285Y-165400000D01*
X281273238Y-165495238D01*
X281354190Y-165685714D01*
X281354190Y-165971428D01*
X281273238Y-166161904D01*
X281192285Y-166257142D01*
X281030380Y-166352380D01*
X280382761Y-166352380D01*
X282082761Y-166257142D02*
X282649428Y-166257142D01*
X282892285Y-167304761D02*
X282082761Y-167304761D01*
X282082761Y-165304761D01*
X282892285Y-165304761D01*
X283620857Y-167304761D02*
X283620857Y-165304761D01*
X284025619Y-165304761D01*
X284268476Y-165400000D01*
X284430380Y-165590476D01*
X284511333Y-165780952D01*
X284592285Y-166161904D01*
X284592285Y-166447619D01*
X284511333Y-166828571D01*
X284430380Y-167019047D01*
X284268476Y-167209523D01*
X284025619Y-167304761D01*
X283620857Y-167304761D01*
M02*
