G04 #@! TF.GenerationSoftware,KiCad,Pcbnew,(5.0.0-3-g5ebb6b6)*
G04 #@! TF.CreationDate,2018-10-04T16:31:17-06:00*
G04 #@! TF.ProjectId,Hallow,48616C6C6F772E6B696361645F706362,rev?*
G04 #@! TF.SameCoordinates,Original*
G04 #@! TF.FileFunction,Copper,L1,Top,Signal*
G04 #@! TF.FilePolarity,Positive*
%FSLAX46Y46*%
G04 Gerber Fmt 4.6, Leading zero omitted, Abs format (unit mm)*
G04 Created by KiCad (PCBNEW (5.0.0-3-g5ebb6b6)) date Thursday, October 04, 2018 at 04:31:17 PM*
%MOMM*%
%LPD*%
G01*
G04 APERTURE LIST*
G04 #@! TA.AperFunction,ComponentPad*
%ADD10R,1.700000X1.700000*%
G04 #@! TD*
G04 #@! TA.AperFunction,ComponentPad*
%ADD11O,1.700000X1.700000*%
G04 #@! TD*
G04 #@! TA.AperFunction,ComponentPad*
%ADD12R,1.600000X1.600000*%
G04 #@! TD*
G04 #@! TA.AperFunction,ComponentPad*
%ADD13O,1.600000X1.600000*%
G04 #@! TD*
G04 #@! TA.AperFunction,Conductor*
%ADD14C,0.150000*%
G04 #@! TD*
G04 #@! TA.AperFunction,SMDPad,CuDef*
%ADD15C,1.150000*%
G04 #@! TD*
G04 #@! TA.AperFunction,ComponentPad*
%ADD16C,1.800000*%
G04 #@! TD*
G04 #@! TA.AperFunction,ComponentPad*
%ADD17C,1.500000*%
G04 #@! TD*
G04 #@! TA.AperFunction,ComponentPad*
%ADD18R,2.200000X2.200000*%
G04 #@! TD*
G04 #@! TA.AperFunction,ComponentPad*
%ADD19O,2.200000X2.200000*%
G04 #@! TD*
G04 #@! TA.AperFunction,ComponentPad*
%ADD20C,2.500000*%
G04 #@! TD*
G04 #@! TA.AperFunction,ComponentPad*
%ADD21C,3.000000*%
G04 #@! TD*
G04 #@! TA.AperFunction,ComponentPad*
%ADD22O,1.500000X1.050000*%
G04 #@! TD*
G04 #@! TA.AperFunction,ComponentPad*
%ADD23R,1.500000X1.050000*%
G04 #@! TD*
G04 #@! TA.AperFunction,ComponentPad*
%ADD24R,2.600000X2.600000*%
G04 #@! TD*
G04 #@! TA.AperFunction,ComponentPad*
%ADD25C,2.600000*%
G04 #@! TD*
G04 #@! TA.AperFunction,ViaPad*
%ADD26C,0.900000*%
G04 #@! TD*
G04 #@! TA.AperFunction,Conductor*
%ADD27C,0.500000*%
G04 #@! TD*
G04 #@! TA.AperFunction,Conductor*
%ADD28C,0.200000*%
G04 #@! TD*
G04 #@! TA.AperFunction,Conductor*
%ADD29C,3.000000*%
G04 #@! TD*
G04 APERTURE END LIST*
D10*
G04 #@! TO.P,J3,1*
G04 #@! TO.N,/Vcc2*
X196240800Y-148222000D03*
D11*
G04 #@! TO.P,J3,2*
G04 #@! TO.N,GND*
X198780800Y-148222000D03*
G04 #@! TO.P,J3,3*
G04 #@! TO.N,/Out1*
X201320800Y-148222000D03*
G04 #@! TO.P,J3,4*
G04 #@! TO.N,/Out2*
X203860800Y-148222000D03*
G04 #@! TO.P,J3,5*
G04 #@! TO.N,/Out3*
X206400800Y-148222000D03*
G04 #@! TO.P,J3,6*
G04 #@! TO.N,/Out4*
X208940800Y-148222000D03*
G04 #@! TD*
D12*
G04 #@! TO.P,L293D,1*
G04 #@! TO.N,/GPIO18(GEN1)(PWM0)*
X194361200Y-145478800D03*
D13*
G04 #@! TO.P,L293D,9*
G04 #@! TO.N,/GPIO13(PWM1)*
X212141200Y-137858800D03*
G04 #@! TO.P,L293D,2*
G04 #@! TO.N,/GPIO23(GEN4)*
X196901200Y-145478800D03*
G04 #@! TO.P,L293D,10*
G04 #@! TO.N,/GPIO22(GEN3)*
X209601200Y-137858800D03*
G04 #@! TO.P,L293D,3*
G04 #@! TO.N,/Out1*
X199441200Y-145478800D03*
G04 #@! TO.P,L293D,11*
G04 #@! TO.N,/Out3*
X207061200Y-137858800D03*
G04 #@! TO.P,L293D,4*
G04 #@! TO.N,GND*
X201981200Y-145478800D03*
G04 #@! TO.P,L293D,12*
X204521200Y-137858800D03*
G04 #@! TO.P,L293D,5*
X204521200Y-145478800D03*
G04 #@! TO.P,L293D,13*
X201981200Y-137858800D03*
G04 #@! TO.P,L293D,6*
G04 #@! TO.N,/Out2*
X207061200Y-145478800D03*
G04 #@! TO.P,L293D,14*
G04 #@! TO.N,/Out4*
X199441200Y-137858800D03*
G04 #@! TO.P,L293D,7*
G04 #@! TO.N,/GPIO24(GEN5)*
X209601200Y-145478800D03*
G04 #@! TO.P,L293D,15*
G04 #@! TO.N,/GPIO25(GEN6)*
X196901200Y-137858800D03*
G04 #@! TO.P,L293D,8*
G04 #@! TO.N,/Vcc2*
X212141200Y-145478800D03*
G04 #@! TO.P,L293D,16*
X194361200Y-137858800D03*
G04 #@! TD*
D11*
G04 #@! TO.P,D3,2*
G04 #@! TO.N,/WM_D7*
X227983745Y-147089771D03*
D10*
G04 #@! TO.P,D3,1*
G04 #@! TO.N,Net-(D3-Pad1)*
X227983745Y-144549771D03*
G04 #@! TD*
G04 #@! TO.P,D2,1*
G04 #@! TO.N,Net-(D2-Pad1)*
X231242000Y-144615200D03*
D11*
G04 #@! TO.P,D2,2*
G04 #@! TO.N,/WM_D8*
X231242000Y-147155200D03*
G04 #@! TD*
D14*
G04 #@! TO.N,Net-(D3-Pad1)*
G04 #@! TO.C,R3*
G36*
X231699290Y-136309095D02*
X231723558Y-136312695D01*
X231747357Y-136318656D01*
X231770456Y-136326921D01*
X231792635Y-136337411D01*
X231813678Y-136350023D01*
X231833384Y-136364638D01*
X231851562Y-136381114D01*
X231868038Y-136399292D01*
X231882653Y-136418998D01*
X231895265Y-136440041D01*
X231905755Y-136462220D01*
X231914020Y-136485319D01*
X231919981Y-136509118D01*
X231923581Y-136533386D01*
X231924785Y-136557890D01*
X231924785Y-137207892D01*
X231923581Y-137232396D01*
X231919981Y-137256664D01*
X231914020Y-137280463D01*
X231905755Y-137303562D01*
X231895265Y-137325741D01*
X231882653Y-137346784D01*
X231868038Y-137366490D01*
X231851562Y-137384668D01*
X231833384Y-137401144D01*
X231813678Y-137415759D01*
X231792635Y-137428371D01*
X231770456Y-137438861D01*
X231747357Y-137447126D01*
X231723558Y-137453087D01*
X231699290Y-137456687D01*
X231674786Y-137457891D01*
X230774784Y-137457891D01*
X230750280Y-137456687D01*
X230726012Y-137453087D01*
X230702213Y-137447126D01*
X230679114Y-137438861D01*
X230656935Y-137428371D01*
X230635892Y-137415759D01*
X230616186Y-137401144D01*
X230598008Y-137384668D01*
X230581532Y-137366490D01*
X230566917Y-137346784D01*
X230554305Y-137325741D01*
X230543815Y-137303562D01*
X230535550Y-137280463D01*
X230529589Y-137256664D01*
X230525989Y-137232396D01*
X230524785Y-137207892D01*
X230524785Y-136557890D01*
X230525989Y-136533386D01*
X230529589Y-136509118D01*
X230535550Y-136485319D01*
X230543815Y-136462220D01*
X230554305Y-136440041D01*
X230566917Y-136418998D01*
X230581532Y-136399292D01*
X230598008Y-136381114D01*
X230616186Y-136364638D01*
X230635892Y-136350023D01*
X230656935Y-136337411D01*
X230679114Y-136326921D01*
X230702213Y-136318656D01*
X230726012Y-136312695D01*
X230750280Y-136309095D01*
X230774784Y-136307891D01*
X231674786Y-136307891D01*
X231699290Y-136309095D01*
X231699290Y-136309095D01*
G37*
D15*
G04 #@! TD*
G04 #@! TO.P,R3,2*
G04 #@! TO.N,Net-(D3-Pad1)*
X231224785Y-136882891D03*
D14*
G04 #@! TO.N,/WM_GND*
G04 #@! TO.C,R3*
G36*
X231699290Y-134259095D02*
X231723558Y-134262695D01*
X231747357Y-134268656D01*
X231770456Y-134276921D01*
X231792635Y-134287411D01*
X231813678Y-134300023D01*
X231833384Y-134314638D01*
X231851562Y-134331114D01*
X231868038Y-134349292D01*
X231882653Y-134368998D01*
X231895265Y-134390041D01*
X231905755Y-134412220D01*
X231914020Y-134435319D01*
X231919981Y-134459118D01*
X231923581Y-134483386D01*
X231924785Y-134507890D01*
X231924785Y-135157892D01*
X231923581Y-135182396D01*
X231919981Y-135206664D01*
X231914020Y-135230463D01*
X231905755Y-135253562D01*
X231895265Y-135275741D01*
X231882653Y-135296784D01*
X231868038Y-135316490D01*
X231851562Y-135334668D01*
X231833384Y-135351144D01*
X231813678Y-135365759D01*
X231792635Y-135378371D01*
X231770456Y-135388861D01*
X231747357Y-135397126D01*
X231723558Y-135403087D01*
X231699290Y-135406687D01*
X231674786Y-135407891D01*
X230774784Y-135407891D01*
X230750280Y-135406687D01*
X230726012Y-135403087D01*
X230702213Y-135397126D01*
X230679114Y-135388861D01*
X230656935Y-135378371D01*
X230635892Y-135365759D01*
X230616186Y-135351144D01*
X230598008Y-135334668D01*
X230581532Y-135316490D01*
X230566917Y-135296784D01*
X230554305Y-135275741D01*
X230543815Y-135253562D01*
X230535550Y-135230463D01*
X230529589Y-135206664D01*
X230525989Y-135182396D01*
X230524785Y-135157892D01*
X230524785Y-134507890D01*
X230525989Y-134483386D01*
X230529589Y-134459118D01*
X230535550Y-134435319D01*
X230543815Y-134412220D01*
X230554305Y-134390041D01*
X230566917Y-134368998D01*
X230581532Y-134349292D01*
X230598008Y-134331114D01*
X230616186Y-134314638D01*
X230635892Y-134300023D01*
X230656935Y-134287411D01*
X230679114Y-134276921D01*
X230702213Y-134268656D01*
X230726012Y-134262695D01*
X230750280Y-134259095D01*
X230774784Y-134257891D01*
X231674786Y-134257891D01*
X231699290Y-134259095D01*
X231699290Y-134259095D01*
G37*
D15*
G04 #@! TD*
G04 #@! TO.P,R3,1*
G04 #@! TO.N,/WM_GND*
X231224785Y-134832891D03*
D14*
G04 #@! TO.N,/WM_GND*
G04 #@! TO.C,R2*
G36*
X234940330Y-134252855D02*
X234964598Y-134256455D01*
X234988397Y-134262416D01*
X235011496Y-134270681D01*
X235033675Y-134281171D01*
X235054718Y-134293783D01*
X235074424Y-134308398D01*
X235092602Y-134324874D01*
X235109078Y-134343052D01*
X235123693Y-134362758D01*
X235136305Y-134383801D01*
X235146795Y-134405980D01*
X235155060Y-134429079D01*
X235161021Y-134452878D01*
X235164621Y-134477146D01*
X235165825Y-134501650D01*
X235165825Y-135151652D01*
X235164621Y-135176156D01*
X235161021Y-135200424D01*
X235155060Y-135224223D01*
X235146795Y-135247322D01*
X235136305Y-135269501D01*
X235123693Y-135290544D01*
X235109078Y-135310250D01*
X235092602Y-135328428D01*
X235074424Y-135344904D01*
X235054718Y-135359519D01*
X235033675Y-135372131D01*
X235011496Y-135382621D01*
X234988397Y-135390886D01*
X234964598Y-135396847D01*
X234940330Y-135400447D01*
X234915826Y-135401651D01*
X234015824Y-135401651D01*
X233991320Y-135400447D01*
X233967052Y-135396847D01*
X233943253Y-135390886D01*
X233920154Y-135382621D01*
X233897975Y-135372131D01*
X233876932Y-135359519D01*
X233857226Y-135344904D01*
X233839048Y-135328428D01*
X233822572Y-135310250D01*
X233807957Y-135290544D01*
X233795345Y-135269501D01*
X233784855Y-135247322D01*
X233776590Y-135224223D01*
X233770629Y-135200424D01*
X233767029Y-135176156D01*
X233765825Y-135151652D01*
X233765825Y-134501650D01*
X233767029Y-134477146D01*
X233770629Y-134452878D01*
X233776590Y-134429079D01*
X233784855Y-134405980D01*
X233795345Y-134383801D01*
X233807957Y-134362758D01*
X233822572Y-134343052D01*
X233839048Y-134324874D01*
X233857226Y-134308398D01*
X233876932Y-134293783D01*
X233897975Y-134281171D01*
X233920154Y-134270681D01*
X233943253Y-134262416D01*
X233967052Y-134256455D01*
X233991320Y-134252855D01*
X234015824Y-134251651D01*
X234915826Y-134251651D01*
X234940330Y-134252855D01*
X234940330Y-134252855D01*
G37*
D15*
G04 #@! TD*
G04 #@! TO.P,R2,1*
G04 #@! TO.N,/WM_GND*
X234465825Y-134826651D03*
D14*
G04 #@! TO.N,Net-(D2-Pad1)*
G04 #@! TO.C,R2*
G36*
X234940330Y-136302855D02*
X234964598Y-136306455D01*
X234988397Y-136312416D01*
X235011496Y-136320681D01*
X235033675Y-136331171D01*
X235054718Y-136343783D01*
X235074424Y-136358398D01*
X235092602Y-136374874D01*
X235109078Y-136393052D01*
X235123693Y-136412758D01*
X235136305Y-136433801D01*
X235146795Y-136455980D01*
X235155060Y-136479079D01*
X235161021Y-136502878D01*
X235164621Y-136527146D01*
X235165825Y-136551650D01*
X235165825Y-137201652D01*
X235164621Y-137226156D01*
X235161021Y-137250424D01*
X235155060Y-137274223D01*
X235146795Y-137297322D01*
X235136305Y-137319501D01*
X235123693Y-137340544D01*
X235109078Y-137360250D01*
X235092602Y-137378428D01*
X235074424Y-137394904D01*
X235054718Y-137409519D01*
X235033675Y-137422131D01*
X235011496Y-137432621D01*
X234988397Y-137440886D01*
X234964598Y-137446847D01*
X234940330Y-137450447D01*
X234915826Y-137451651D01*
X234015824Y-137451651D01*
X233991320Y-137450447D01*
X233967052Y-137446847D01*
X233943253Y-137440886D01*
X233920154Y-137432621D01*
X233897975Y-137422131D01*
X233876932Y-137409519D01*
X233857226Y-137394904D01*
X233839048Y-137378428D01*
X233822572Y-137360250D01*
X233807957Y-137340544D01*
X233795345Y-137319501D01*
X233784855Y-137297322D01*
X233776590Y-137274223D01*
X233770629Y-137250424D01*
X233767029Y-137226156D01*
X233765825Y-137201652D01*
X233765825Y-136551650D01*
X233767029Y-136527146D01*
X233770629Y-136502878D01*
X233776590Y-136479079D01*
X233784855Y-136455980D01*
X233795345Y-136433801D01*
X233807957Y-136412758D01*
X233822572Y-136393052D01*
X233839048Y-136374874D01*
X233857226Y-136358398D01*
X233876932Y-136343783D01*
X233897975Y-136331171D01*
X233920154Y-136320681D01*
X233943253Y-136312416D01*
X233967052Y-136306455D01*
X233991320Y-136302855D01*
X234015824Y-136301651D01*
X234915826Y-136301651D01*
X234940330Y-136302855D01*
X234940330Y-136302855D01*
G37*
D15*
G04 #@! TD*
G04 #@! TO.P,R2,2*
G04 #@! TO.N,Net-(D2-Pad1)*
X234465825Y-136876651D03*
D16*
G04 #@! TO.P,U1,8*
G04 #@! TO.N,Net-(U1-Pad8)*
X220269200Y-110477600D03*
G04 #@! TO.P,U1,7*
G04 #@! TO.N,Net-(U1-Pad7)*
X220269200Y-113017600D03*
G04 #@! TO.P,U1,6*
G04 #@! TO.N,Net-(U1-Pad6)*
X220269200Y-115557600D03*
G04 #@! TO.P,U1,5*
G04 #@! TO.N,Net-(U1-Pad5)*
X220269200Y-118097600D03*
G04 #@! TO.P,U1,4*
G04 #@! TO.N,Net-(U1-Pad4)*
X220269200Y-120637600D03*
G04 #@! TO.P,U1,3*
G04 #@! TO.N,Net-(U1-Pad3)*
X220269200Y-123177600D03*
G04 #@! TO.P,U1,2*
G04 #@! TO.N,/WM_GND*
X220269200Y-125717600D03*
G04 #@! TO.P,U1,1*
G04 #@! TO.N,Net-(U1-Pad1)*
X220269200Y-128257600D03*
G04 #@! TO.P,U1,16*
G04 #@! TO.N,Net-(U1-Pad16)*
X243129200Y-128257600D03*
G04 #@! TO.P,U1,15*
G04 #@! TO.N,/WM_D8*
X243129200Y-125717600D03*
G04 #@! TO.P,U1,14*
G04 #@! TO.N,/WM_D7*
X243129200Y-123177600D03*
G04 #@! TO.P,U1,13*
G04 #@! TO.N,Net-(U1-Pad13)*
X243129200Y-120637600D03*
G04 #@! TO.P,U1,12*
G04 #@! TO.N,Net-(U1-Pad12)*
X243129200Y-118097600D03*
G04 #@! TO.P,U1,11*
G04 #@! TO.N,Net-(U1-Pad11)*
X243129200Y-115557600D03*
G04 #@! TO.P,U1,10*
G04 #@! TO.N,Net-(U1-Pad10)*
X243129200Y-113017600D03*
G04 #@! TO.P,U1,9*
G04 #@! TO.N,Net-(U1-Pad9)*
X243129200Y-110477600D03*
G04 #@! TD*
D17*
G04 #@! TO.P,J2,1*
G04 #@! TO.N,Net-(J2-Pad1)*
X215181600Y-105731200D03*
G04 #@! TO.P,J2,2*
G04 #@! TO.N,Net-(J2-Pad2)*
X212681600Y-105731200D03*
G04 #@! TO.P,J2,3*
G04 #@! TO.N,Net-(J2-Pad3)*
X210181600Y-105731200D03*
G04 #@! TO.P,J2,4*
G04 #@! TO.N,GND*
X195181600Y-117731200D03*
G04 #@! TO.P,J2,5*
G04 #@! TO.N,/GPIO27(GEN2)*
X195181600Y-120231200D03*
G04 #@! TO.P,J2,6*
G04 #@! TO.N,+5V*
X195181600Y-122731200D03*
G04 #@! TD*
D18*
G04 #@! TO.P,D1,1*
G04 #@! TO.N,+5V*
X261925200Y-114795600D03*
D19*
G04 #@! TO.P,D1,2*
G04 #@! TO.N,/RLY1*
X261925200Y-107175600D03*
G04 #@! TD*
D20*
G04 #@! TO.P,K1,2*
G04 #@! TO.N,/RLY(COM)*
X249626800Y-121825600D03*
D21*
G04 #@! TO.P,K1,3*
G04 #@! TO.N,/RLY(NO)*
X249626800Y-134025600D03*
G04 #@! TO.P,K1,4*
G04 #@! TO.N,/RLY(NC)*
X261676800Y-134075600D03*
D20*
G04 #@! TO.P,K1,5*
G04 #@! TO.N,+5V*
X261626800Y-121825600D03*
D21*
G04 #@! TO.P,K1,1*
G04 #@! TO.N,/RLY1*
X255676800Y-119875600D03*
G04 #@! TD*
D22*
G04 #@! TO.P,Q1,2*
G04 #@! TO.N,Net-(Q1-Pad2)*
X253136800Y-114033600D03*
G04 #@! TO.P,Q1,3*
G04 #@! TO.N,/RLY1*
X253136800Y-115303600D03*
D23*
G04 #@! TO.P,Q1,1*
G04 #@! TO.N,GND*
X253136800Y-112763600D03*
G04 #@! TD*
D14*
G04 #@! TO.N,/GPIO17(GEN0)*
G04 #@! TO.C,R1*
G36*
X250004505Y-112485604D02*
X250028773Y-112489204D01*
X250052572Y-112495165D01*
X250075671Y-112503430D01*
X250097850Y-112513920D01*
X250118893Y-112526532D01*
X250138599Y-112541147D01*
X250156777Y-112557623D01*
X250173253Y-112575801D01*
X250187868Y-112595507D01*
X250200480Y-112616550D01*
X250210970Y-112638729D01*
X250219235Y-112661828D01*
X250225196Y-112685627D01*
X250228796Y-112709895D01*
X250230000Y-112734399D01*
X250230000Y-113384401D01*
X250228796Y-113408905D01*
X250225196Y-113433173D01*
X250219235Y-113456972D01*
X250210970Y-113480071D01*
X250200480Y-113502250D01*
X250187868Y-113523293D01*
X250173253Y-113542999D01*
X250156777Y-113561177D01*
X250138599Y-113577653D01*
X250118893Y-113592268D01*
X250097850Y-113604880D01*
X250075671Y-113615370D01*
X250052572Y-113623635D01*
X250028773Y-113629596D01*
X250004505Y-113633196D01*
X249980001Y-113634400D01*
X249079999Y-113634400D01*
X249055495Y-113633196D01*
X249031227Y-113629596D01*
X249007428Y-113623635D01*
X248984329Y-113615370D01*
X248962150Y-113604880D01*
X248941107Y-113592268D01*
X248921401Y-113577653D01*
X248903223Y-113561177D01*
X248886747Y-113542999D01*
X248872132Y-113523293D01*
X248859520Y-113502250D01*
X248849030Y-113480071D01*
X248840765Y-113456972D01*
X248834804Y-113433173D01*
X248831204Y-113408905D01*
X248830000Y-113384401D01*
X248830000Y-112734399D01*
X248831204Y-112709895D01*
X248834804Y-112685627D01*
X248840765Y-112661828D01*
X248849030Y-112638729D01*
X248859520Y-112616550D01*
X248872132Y-112595507D01*
X248886747Y-112575801D01*
X248903223Y-112557623D01*
X248921401Y-112541147D01*
X248941107Y-112526532D01*
X248962150Y-112513920D01*
X248984329Y-112503430D01*
X249007428Y-112495165D01*
X249031227Y-112489204D01*
X249055495Y-112485604D01*
X249079999Y-112484400D01*
X249980001Y-112484400D01*
X250004505Y-112485604D01*
X250004505Y-112485604D01*
G37*
D15*
G04 #@! TD*
G04 #@! TO.P,R1,1*
G04 #@! TO.N,/GPIO17(GEN0)*
X249530000Y-113059400D03*
D14*
G04 #@! TO.N,Net-(Q1-Pad2)*
G04 #@! TO.C,R1*
G36*
X250004505Y-114535604D02*
X250028773Y-114539204D01*
X250052572Y-114545165D01*
X250075671Y-114553430D01*
X250097850Y-114563920D01*
X250118893Y-114576532D01*
X250138599Y-114591147D01*
X250156777Y-114607623D01*
X250173253Y-114625801D01*
X250187868Y-114645507D01*
X250200480Y-114666550D01*
X250210970Y-114688729D01*
X250219235Y-114711828D01*
X250225196Y-114735627D01*
X250228796Y-114759895D01*
X250230000Y-114784399D01*
X250230000Y-115434401D01*
X250228796Y-115458905D01*
X250225196Y-115483173D01*
X250219235Y-115506972D01*
X250210970Y-115530071D01*
X250200480Y-115552250D01*
X250187868Y-115573293D01*
X250173253Y-115592999D01*
X250156777Y-115611177D01*
X250138599Y-115627653D01*
X250118893Y-115642268D01*
X250097850Y-115654880D01*
X250075671Y-115665370D01*
X250052572Y-115673635D01*
X250028773Y-115679596D01*
X250004505Y-115683196D01*
X249980001Y-115684400D01*
X249079999Y-115684400D01*
X249055495Y-115683196D01*
X249031227Y-115679596D01*
X249007428Y-115673635D01*
X248984329Y-115665370D01*
X248962150Y-115654880D01*
X248941107Y-115642268D01*
X248921401Y-115627653D01*
X248903223Y-115611177D01*
X248886747Y-115592999D01*
X248872132Y-115573293D01*
X248859520Y-115552250D01*
X248849030Y-115530071D01*
X248840765Y-115506972D01*
X248834804Y-115483173D01*
X248831204Y-115458905D01*
X248830000Y-115434401D01*
X248830000Y-114784399D01*
X248831204Y-114759895D01*
X248834804Y-114735627D01*
X248840765Y-114711828D01*
X248849030Y-114688729D01*
X248859520Y-114666550D01*
X248872132Y-114645507D01*
X248886747Y-114625801D01*
X248903223Y-114607623D01*
X248921401Y-114591147D01*
X248941107Y-114576532D01*
X248962150Y-114563920D01*
X248984329Y-114553430D01*
X249007428Y-114545165D01*
X249031227Y-114539204D01*
X249055495Y-114535604D01*
X249079999Y-114534400D01*
X249980001Y-114534400D01*
X250004505Y-114535604D01*
X250004505Y-114535604D01*
G37*
D15*
G04 #@! TD*
G04 #@! TO.P,R1,2*
G04 #@! TO.N,Net-(Q1-Pad2)*
X249530000Y-115109400D03*
D24*
G04 #@! TO.P,J1,1*
G04 #@! TO.N,/RLY(NC)*
X260909200Y-144513600D03*
D25*
G04 #@! TO.P,J1,2*
G04 #@! TO.N,/RLY(COM)*
X255909200Y-144513600D03*
G04 #@! TO.P,J1,3*
G04 #@! TO.N,/RLY(NO)*
X250909200Y-144513600D03*
G04 #@! TD*
D10*
G04 #@! TO.P,P1,1*
G04 #@! TO.N,+3V3*
X208370000Y-98770000D03*
D11*
G04 #@! TO.P,P1,2*
G04 #@! TO.N,+5V*
X208370000Y-96230000D03*
G04 #@! TO.P,P1,3*
G04 #@! TO.N,/GPIO2(SDA1)*
X210910000Y-98770000D03*
G04 #@! TO.P,P1,4*
G04 #@! TO.N,+5V*
X210910000Y-96230000D03*
G04 #@! TO.P,P1,5*
G04 #@! TO.N,/GPIO3(SCL1)*
X213450000Y-98770000D03*
G04 #@! TO.P,P1,6*
G04 #@! TO.N,GND*
X213450000Y-96230000D03*
G04 #@! TO.P,P1,7*
G04 #@! TO.N,/GPIO4(GCLK)*
X215990000Y-98770000D03*
G04 #@! TO.P,P1,8*
G04 #@! TO.N,/GPIO14(TXD0)*
X215990000Y-96230000D03*
G04 #@! TO.P,P1,9*
G04 #@! TO.N,GND*
X218530000Y-98770000D03*
G04 #@! TO.P,P1,10*
G04 #@! TO.N,/GPIO15(RXD0)*
X218530000Y-96230000D03*
G04 #@! TO.P,P1,11*
G04 #@! TO.N,/GPIO17(GEN0)*
X221070000Y-98770000D03*
G04 #@! TO.P,P1,12*
G04 #@! TO.N,/GPIO18(GEN1)(PWM0)*
X221070000Y-96230000D03*
G04 #@! TO.P,P1,13*
G04 #@! TO.N,/GPIO27(GEN2)*
X223610000Y-98770000D03*
G04 #@! TO.P,P1,14*
G04 #@! TO.N,GND*
X223610000Y-96230000D03*
G04 #@! TO.P,P1,15*
G04 #@! TO.N,/GPIO22(GEN3)*
X226150000Y-98770000D03*
G04 #@! TO.P,P1,16*
G04 #@! TO.N,/GPIO23(GEN4)*
X226150000Y-96230000D03*
G04 #@! TO.P,P1,17*
G04 #@! TO.N,+3V3*
X228690000Y-98770000D03*
G04 #@! TO.P,P1,18*
G04 #@! TO.N,/GPIO24(GEN5)*
X228690000Y-96230000D03*
G04 #@! TO.P,P1,19*
G04 #@! TO.N,/GPIO10(SPI0_MOSI)*
X231230000Y-98770000D03*
G04 #@! TO.P,P1,20*
G04 #@! TO.N,GND*
X231230000Y-96230000D03*
G04 #@! TO.P,P1,21*
G04 #@! TO.N,/GPIO9(SPI0_MISO)*
X233770000Y-98770000D03*
G04 #@! TO.P,P1,22*
G04 #@! TO.N,/GPIO25(GEN6)*
X233770000Y-96230000D03*
G04 #@! TO.P,P1,23*
G04 #@! TO.N,/GPIO11(SPI0_SCK)*
X236310000Y-98770000D03*
G04 #@! TO.P,P1,24*
G04 #@! TO.N,/GPIO8(SPI0_CE_N)*
X236310000Y-96230000D03*
G04 #@! TO.P,P1,25*
G04 #@! TO.N,GND*
X238850000Y-98770000D03*
G04 #@! TO.P,P1,26*
G04 #@! TO.N,/GPIO7(SPI1_CE_N)*
X238850000Y-96230000D03*
G04 #@! TO.P,P1,27*
G04 #@! TO.N,/ID_SD*
X241390000Y-98770000D03*
G04 #@! TO.P,P1,28*
G04 #@! TO.N,/ID_SC*
X241390000Y-96230000D03*
G04 #@! TO.P,P1,29*
G04 #@! TO.N,/GPIO5*
X243930000Y-98770000D03*
G04 #@! TO.P,P1,30*
G04 #@! TO.N,GND*
X243930000Y-96230000D03*
G04 #@! TO.P,P1,31*
G04 #@! TO.N,/GPIO6*
X246470000Y-98770000D03*
G04 #@! TO.P,P1,32*
G04 #@! TO.N,/GPIO12(PWM0)*
X246470000Y-96230000D03*
G04 #@! TO.P,P1,33*
G04 #@! TO.N,/GPIO13(PWM1)*
X249010000Y-98770000D03*
G04 #@! TO.P,P1,34*
G04 #@! TO.N,GND*
X249010000Y-96230000D03*
G04 #@! TO.P,P1,35*
G04 #@! TO.N,/GPIO19(SPI1_MISO)*
X251550000Y-98770000D03*
G04 #@! TO.P,P1,36*
G04 #@! TO.N,/GPIO16*
X251550000Y-96230000D03*
G04 #@! TO.P,P1,37*
G04 #@! TO.N,/GPIO26*
X254090000Y-98770000D03*
G04 #@! TO.P,P1,38*
G04 #@! TO.N,/GPIO20(SPI1_MOSI)*
X254090000Y-96230000D03*
G04 #@! TO.P,P1,39*
G04 #@! TO.N,GND*
X256630000Y-98770000D03*
G04 #@! TO.P,P1,40*
G04 #@! TO.N,/GPIO21(SPI1_SCK)*
X256630000Y-96230000D03*
G04 #@! TD*
D26*
G04 #@! TO.N,+5V*
X211328400Y-101435200D03*
X212801600Y-101435200D03*
X263754000Y-103467200D03*
X263754000Y-104788000D03*
G04 #@! TO.N,/GPIO17(GEN0)*
X225908000Y-100825600D03*
X225908000Y-101892400D03*
X219304000Y-101079600D03*
X220421600Y-101079600D03*
G04 #@! TO.N,/GPIO23(GEN4)*
X256591200Y-106413600D03*
X257556400Y-106413600D03*
X256591200Y-106413600D03*
X260045600Y-101028800D03*
X260604400Y-101536800D03*
G04 #@! TD*
D27*
G04 #@! TO.N,+5V*
X210910000Y-96230000D02*
X208370000Y-96230000D01*
D28*
X261925200Y-121527200D02*
X261626800Y-121825600D01*
X261925200Y-114795600D02*
X261925200Y-121527200D01*
X207520001Y-97079999D02*
X208370000Y-96230000D01*
X202881599Y-115031201D02*
X202881599Y-101718401D01*
X202881599Y-101718401D02*
X207520001Y-97079999D01*
X195181600Y-122731200D02*
X202881599Y-115031201D01*
X261925200Y-113495600D02*
X263754000Y-111666800D01*
X261925200Y-114795600D02*
X261925200Y-113495600D01*
X263754000Y-111666800D02*
X263754000Y-104788000D01*
X263754000Y-103467200D02*
X263754000Y-103365600D01*
X263754000Y-104788000D02*
X263754000Y-103467200D01*
X212060001Y-100703599D02*
X211328400Y-101435200D01*
X212060001Y-97380001D02*
X212060001Y-100703599D01*
X210910000Y-96230000D02*
X212060001Y-97380001D01*
X212299999Y-97619999D02*
X212299999Y-100933599D01*
X212351601Y-100985201D02*
X212801600Y-101435200D01*
X212299999Y-100933599D02*
X212351601Y-100985201D01*
X210910000Y-96230000D02*
X212299999Y-97619999D01*
G04 #@! TO.N,GND*
X217379999Y-97619999D02*
X217680001Y-97920001D01*
X214839999Y-97619999D02*
X217379999Y-97619999D01*
X217680001Y-97920001D02*
X218530000Y-98770000D01*
X213450000Y-96230000D02*
X214839999Y-97619999D01*
X222760001Y-97079999D02*
X223610000Y-96230000D01*
X219680001Y-97619999D02*
X222220001Y-97619999D01*
X222220001Y-97619999D02*
X222760001Y-97079999D01*
X218530000Y-98770000D02*
X219680001Y-97619999D01*
X230380001Y-95380001D02*
X231230000Y-96230000D01*
X230079999Y-95079999D02*
X230380001Y-95380001D01*
X224760001Y-95079999D02*
X230079999Y-95079999D01*
X223610000Y-96230000D02*
X224760001Y-95079999D01*
X238000001Y-97920001D02*
X238850000Y-98770000D01*
X237699999Y-97619999D02*
X238000001Y-97920001D01*
X232619999Y-97619999D02*
X237699999Y-97619999D01*
X231230000Y-96230000D02*
X232619999Y-97619999D01*
X243080001Y-97079999D02*
X243930000Y-96230000D01*
X242779999Y-97380001D02*
X243080001Y-97079999D01*
X240239999Y-97380001D02*
X242779999Y-97380001D01*
X238850000Y-98770000D02*
X240239999Y-97380001D01*
X248160001Y-95380001D02*
X249010000Y-96230000D01*
X245080001Y-95079999D02*
X247859999Y-95079999D01*
X247859999Y-95079999D02*
X248160001Y-95380001D01*
X243930000Y-96230000D02*
X245080001Y-95079999D01*
X255479999Y-97619999D02*
X255780001Y-97920001D01*
X250399999Y-97619999D02*
X255479999Y-97619999D01*
X255780001Y-97920001D02*
X256630000Y-98770000D01*
X249010000Y-96230000D02*
X250399999Y-97619999D01*
X204186001Y-95079999D02*
X212299999Y-95079999D01*
X212600001Y-95380001D02*
X213450000Y-96230000D01*
X212299999Y-95079999D02*
X212600001Y-95380001D01*
X195181600Y-104084400D02*
X204186001Y-95079999D01*
X195181600Y-117731200D02*
X195181600Y-104084400D01*
X253136800Y-102263200D02*
X256630000Y-98770000D01*
X253136800Y-112763600D02*
X253136800Y-102263200D01*
X201524000Y-145478800D02*
X201981200Y-145478800D01*
X198780800Y-148222000D02*
X201524000Y-145478800D01*
X201981200Y-145478800D02*
X204521200Y-145478800D01*
X201981200Y-137858800D02*
X201981200Y-145478800D01*
X201981200Y-137858800D02*
X204521200Y-137858800D01*
X194431601Y-118481199D02*
X195181600Y-117731200D01*
X193731589Y-119181211D02*
X194431601Y-118481199D01*
X193731589Y-130521187D02*
X193731589Y-119181211D01*
X201069202Y-137858800D02*
X193731589Y-130521187D01*
X201981200Y-137858800D02*
X201069202Y-137858800D01*
G04 #@! TO.N,/GPIO17(GEN0)*
X244620400Y-101892400D02*
X225908000Y-101892400D01*
X243553600Y-100825600D02*
X225908000Y-100825600D01*
X244620400Y-108149800D02*
X249530000Y-113059400D01*
X244620400Y-101892400D02*
X244620400Y-108149800D01*
X243553600Y-107083000D02*
X249530000Y-113059400D01*
X243553600Y-100825600D02*
X243553600Y-107083000D01*
G04 #@! TO.N,/GPIO27(GEN2)*
X194131599Y-123235201D02*
X195140798Y-124244400D01*
X194131599Y-121281201D02*
X194131599Y-123235201D01*
X195181600Y-120231200D02*
X194131599Y-121281201D01*
X195140798Y-124244400D02*
X198323600Y-124244400D01*
X222760001Y-99619999D02*
X223610000Y-98770000D01*
X222760001Y-99807999D02*
X222760001Y-99619999D01*
X198323600Y-124244400D02*
X222760001Y-99807999D01*
G04 #@! TO.N,/GPIO22(GEN3)*
X209601200Y-115318800D02*
X226150000Y-98770000D01*
X209601200Y-137858800D02*
X209601200Y-115318800D01*
G04 #@! TO.N,/GPIO23(GEN4)*
X256591200Y-106413600D02*
X256591200Y-104483200D01*
X256591200Y-104483200D02*
X260045600Y-101028800D01*
X258006399Y-105963601D02*
X258006399Y-104134801D01*
X257556400Y-106413600D02*
X258006399Y-105963601D01*
X258006399Y-104134801D02*
X260604400Y-101536800D01*
X260045600Y-101028800D02*
X260198000Y-100876400D01*
X260604400Y-101536800D02*
X260706000Y-101435200D01*
G04 #@! TO.N,/GPIO24(GEN5)*
X227840001Y-97079999D02*
X228690000Y-96230000D01*
X227539999Y-97380001D02*
X227840001Y-97079999D01*
X227539999Y-99082003D02*
X227539999Y-97380001D01*
X226702001Y-99920001D02*
X227539999Y-99082003D01*
X225703597Y-99920001D02*
X226702001Y-99920001D01*
X210701201Y-114922397D02*
X225703597Y-99920001D01*
X210701201Y-144378799D02*
X210701201Y-114922397D01*
X209601200Y-145478800D02*
X210701201Y-144378799D01*
G04 #@! TO.N,/GPIO25(GEN6)*
X199541611Y-94679989D02*
X232219989Y-94679989D01*
X232920001Y-95380001D02*
X233770000Y-96230000D01*
X192147210Y-102074390D02*
X199541611Y-94679989D01*
X192147210Y-133104810D02*
X192147210Y-102074390D01*
X232219989Y-94679989D02*
X232920001Y-95380001D01*
X196901200Y-137858800D02*
X192147210Y-133104810D01*
G04 #@! TO.N,Net-(Q1-Pad2)*
X252186800Y-114033600D02*
X253136800Y-114033600D01*
X251405800Y-114033600D02*
X252186800Y-114033600D01*
X250330000Y-115109400D02*
X251405800Y-114033600D01*
X249530000Y-115109400D02*
X250330000Y-115109400D01*
G04 #@! TO.N,/RLY(NC)*
X261676800Y-143746000D02*
X260909200Y-144513600D01*
D29*
X261676800Y-134075600D02*
X261676800Y-143746000D01*
G04 #@! TO.N,/RLY(COM)*
X250876799Y-129299599D02*
X255909200Y-134332000D01*
X250876799Y-123075599D02*
X250876799Y-129299599D01*
X255909200Y-134332000D02*
X255909200Y-144513600D01*
X249626800Y-121825600D02*
X250876799Y-123075599D01*
G04 #@! TO.N,/RLY(NO)*
X249609201Y-143213601D02*
X250909200Y-144513600D01*
X248126801Y-141731201D02*
X249609201Y-143213601D01*
X248126801Y-135525599D02*
X248126801Y-141731201D01*
X249626800Y-134025600D02*
X248126801Y-135525599D01*
D28*
G04 #@! TO.N,/RLY1*
X261925200Y-108731234D02*
X261925200Y-107175600D01*
X261925200Y-109998434D02*
X261925200Y-108731234D01*
X256202224Y-115721410D02*
X261925200Y-109998434D01*
X255784414Y-115303600D02*
X256202224Y-115721410D01*
X253136800Y-115303600D02*
X255784414Y-115303600D01*
X255676800Y-116246834D02*
X255676800Y-119875600D01*
X256202224Y-115721410D02*
X255676800Y-116246834D01*
G04 #@! TO.N,/WM_GND*
X231231025Y-134826651D02*
X231224785Y-134832891D01*
X234465825Y-134826651D02*
X231231025Y-134826651D01*
X222109494Y-125717600D02*
X231224785Y-134832891D01*
X220269200Y-125717600D02*
X222109494Y-125717600D01*
G04 #@! TO.N,Net-(D2-Pad1)*
X232292000Y-144615200D02*
X231242000Y-144615200D01*
X234465825Y-142441375D02*
X232292000Y-144615200D01*
X234465825Y-136876651D02*
X234465825Y-142441375D01*
G04 #@! TO.N,Net-(D3-Pad1)*
X231224785Y-141308731D02*
X227983745Y-144549771D01*
X231224785Y-136882891D02*
X231224785Y-141308731D01*
G04 #@! TO.N,/WM_D8*
X242229201Y-126617599D02*
X243129200Y-125717600D01*
X240436800Y-128410000D02*
X242229201Y-126617599D01*
X240436800Y-137960400D02*
X240436800Y-128410000D01*
X231242000Y-147155200D02*
X240436800Y-137960400D01*
G04 #@! TO.N,/WM_D7*
X244029199Y-124077599D02*
X243129200Y-123177600D01*
X244329201Y-124377601D02*
X244029199Y-124077599D01*
X244329201Y-135770001D02*
X244329201Y-124377601D01*
X231794001Y-148305201D02*
X244329201Y-135770001D01*
X230401256Y-148305201D02*
X231794001Y-148305201D01*
X229185826Y-147089771D02*
X230401256Y-148305201D01*
X227983745Y-147089771D02*
X229185826Y-147089771D01*
G04 #@! TO.N,/Out3*
X207250799Y-147372001D02*
X206400800Y-148222000D01*
X208161201Y-146461599D02*
X207250799Y-147372001D01*
X208161201Y-140090171D02*
X208161201Y-146461599D01*
X207061200Y-138990170D02*
X208161201Y-140090171D01*
X207061200Y-137858800D02*
X207061200Y-138990170D01*
G04 #@! TO.N,/Vcc2*
X192147210Y-140072790D02*
X192147210Y-145889610D01*
X194361200Y-137858800D02*
X192147210Y-140072790D01*
X194479600Y-148222000D02*
X196240800Y-148222000D01*
X192147210Y-145889610D02*
X194479600Y-148222000D01*
X196340801Y-149372001D02*
X211803999Y-149372001D01*
X196240800Y-149272000D02*
X196340801Y-149372001D01*
X196240800Y-148222000D02*
X196240800Y-149272000D01*
X212141200Y-149034800D02*
X212141200Y-145478800D01*
X211803999Y-149372001D02*
X212141200Y-149034800D01*
G04 #@! TD*
M02*
